<?xml version="1.0" encoding="UTF-8" standalone="no"?>
<svg
   xmlns:dc="http://purl.org/dc/elements/1.1/"
   xmlns:cc="http://creativecommons.org/ns#"
   xmlns:rdf="http://www.w3.org/1999/02/22-rdf-syntax-ns#"
   xmlns:svg="http://www.w3.org/2000/svg"
   xmlns="http://www.w3.org/2000/svg"
   viewBox="0 0 400 224"
   height="224"
   width="400"
   xml:space="preserve"
   id="svg2"
   version="1.1"><metadata
     id="metadata8"><rdf:RDF><cc:Work
         rdf:about=""><dc:format>image/svg+xml</dc:format><dc:type
           rdf:resource="http://purl.org/dc/dcmitype/StillImage" /></cc:Work></rdf:RDF></metadata><defs
     id="defs6"><clipPath
       id="clipPath32"
       clipPathUnits="userSpaceOnUse"><path
         id="path30"
         d="m 160,1330 h 470 v 10 H 160 Z" /></clipPath><clipPath
       id="clipPath50"
       clipPathUnits="userSpaceOnUse"><path
         id="path48"
         d="m 2650,550 h 220 v 20 h -220 z" /></clipPath></defs><g
     transform="matrix(1.3333333,0,0,-1.3333333,0,224)"
     id="g10"><g
       transform="scale(0.1)"
       id="g12"><path
         id="path14"
         style="fill:none;stroke:#808080;stroke-width:5;stroke-linecap:butt;stroke-linejoin:miter;stroke-miterlimit:3.25;stroke-dasharray:40, 40;stroke-dashoffset:0;stroke-opacity:1"
         d="M 2126.45,169.922 V 1520.08" /><path
         id="path16"
         style="fill:none;stroke:#808080;stroke-width:5;stroke-linecap:butt;stroke-linejoin:miter;stroke-miterlimit:3.25;stroke-dasharray:40, 40;stroke-dashoffset:0;stroke-opacity:1"
         d="M 2652.34,169.922 V 1520.08" /><path
         id="path18"
         style="fill:none;stroke:#808080;stroke-width:5;stroke-linecap:butt;stroke-linejoin:miter;stroke-miterlimit:3.25;stroke-dasharray:40, 40;stroke-dashoffset:0;stroke-opacity:1"
         d="M 975.898,169.922 V 1520.08" /><path
         id="path20"
         style="fill:none;stroke:#808080;stroke-width:5;stroke-linecap:butt;stroke-linejoin:miter;stroke-miterlimit:3.25;stroke-dasharray:40, 40;stroke-dashoffset:0;stroke-opacity:1"
         d="M 618.48,169.922 V 1520.08" /><path
         id="path22"
         style="fill:none;stroke:#808080;stroke-width:5;stroke-linecap:butt;stroke-linejoin:miter;stroke-miterlimit:3.25;stroke-dasharray:40, 40;stroke-dashoffset:0;stroke-opacity:1"
         d="M 166.41,914.84 H 2866.68" /><path
         id="path24"
         style="fill:none;stroke:#808080;stroke-width:5;stroke-linecap:butt;stroke-linejoin:miter;stroke-miterlimit:3.25;stroke-dasharray:40, 40;stroke-dashoffset:0;stroke-opacity:1"
         d="M 166.41,559.102 H 2866.68" /><g
         id="g26"><g
           clip-path="url(#clipPath32)"
           id="g28"><path
             id="path34"
             style="fill:none;stroke:#5e81b5;stroke-width:4.05039978;stroke-linecap:square;stroke-linejoin:miter;stroke-miterlimit:3.25;stroke-dasharray:none;stroke-opacity:1"
             d="M 51.3711,1337.38 H 618.48" /></g></g><path
         id="path36"
         style="fill:none;stroke:#5e81b5;stroke-width:4.05039978;stroke-linecap:square;stroke-linejoin:miter;stroke-miterlimit:3.25;stroke-dasharray:none;stroke-opacity:1"
         d="m 618.48,1337.38 0.071,-0.11 0.121,-0.16 0.238,-0.27 0.43,-0.55 0.859,-1.13 5.27,-6.68 7.621,-9.69 7.109,-8.99 6.949,-8.78 7.543,-9.5 7.071,-8.86 7.617,-9.54 7.5,-9.37 6.992,-8.67 7.609,-9.42 7.071,-8.75 6.961,-8.55 7.5,-9.26 7.027,-8.59 7.621,-9.3 7.5,-9.1 6.949,-8.44 7.582,-9.18 7.071,-8.47 7.648,-9.22 7.5,-8.99 7,-8.36 7.61,-9.06 7.109,-8.4 6.961,-8.2 7.531,-8.91 7.039,-8.28 7.61,-8.9 7.5,-8.75 7,-8.13 7.57,-8.79 7.07,-8.16 6.961,-8.01 7.5,-8.63 7.027,-8.05 7.622,-8.67 7.101,-8.09 6.957,-7.89 7.582,-8.51 7.031,-7.93 7.649,-8.598 7.5,-8.363 7,-7.809 7.57,-8.441 7.11,-7.809 6.96,-7.66 7.54,-8.281 7.031,-7.688 0.109,-0.16 0.121,-0.121 0.239,-0.269 0.5,-0.551 0.98,-1.051 1.949,-2.148 0.281,-0.27 0.231,-0.281 0.469,-0.5 0.98,-1.098 0.149,-0.113 0.121,-0.16 0.23,-0.27 0.512,-0.508 0.117,-0.16 0.121,-0.121 0.231,-0.269 0.121,-0.121 0.109,-0.149 0.16,-0.121 0.117,-0.16" /><path
         id="path38"
         style="fill:none;stroke:#5e81b5;stroke-width:4.05039978;stroke-linecap:square;stroke-linejoin:miter;stroke-miterlimit:3.25;stroke-dasharray:none;stroke-opacity:1"
         d="M 975.898,914.84 H 1896.33" /><path
         id="path40"
         style="fill:none;stroke:#5e81b5;stroke-width:4.05039978;stroke-linecap:square;stroke-linejoin:miter;stroke-miterlimit:3.25;stroke-dasharray:none;stroke-opacity:1"
         d="m 1896.33,914.84 h 179.61 l 0.31,-0.039 h 3.05 l 0.04,-0.031 h 1.64 l 0.58,-0.04 h 0.82 l 0.32,-0.039 h 0.54 l 0.59,-0.043 h 0.31 l 0.31,-0.039 h 0.59 l 0.08,-0.039 h 0.54 l 0.63,-0.078 h 0.31 l 0.31,-0.043 h 0.12 l 0.16,-0.039 h 0.31 l 0.08,-0.031 h 0.23 l 0.94,-0.117 h 0.08 l 0.08,-0.043 h 0.11 l 0.32,-0.039 0.07,-0.039 h 0.08 l 0.16,-0.039 0.31,-0.043 h 0.08 l 0.08,-0.039 h 0.11 l 0.32,-0.071 0.62,-0.117 0.08,-0.043 h 0.04 l 0.47,-0.117 0.08,-0.043 h 0.07 l 0.47,-0.109 0.04,-0.04 0.08,-0.039 0.47,-0.121 0.58,-0.23 0.08,-0.039 h 0.08 l 0.16,-0.082 0.27,-0.117 0.08,-0.043 0.04,-0.039 0.15,-0.04 0.28,-0.148 0.15,-0.082 0.12,-0.078 0.31,-0.152 0.55,-0.321 0.08,-0.07 0.08,-0.039 0.11,-0.078 0.32,-0.203 0.04,-0.079 0.07,-0.031 0.16,-0.117 0.27,-0.242 0.08,-0.039 0.2,-0.192 0.27,-0.238 0.9,-0.891 0.27,-0.351 0.08,-0.117 0.08,-0.082 0.15,-0.2 0.32,-0.429 0.08,-0.071 0.54,-0.82 0.59,-1.019 0.15,-0.309 0.16,-0.281 0.47,-0.93 0.16,-0.351 0.31,-0.668 0.15,-0.391 0.12,-0.391 0.31,-0.781 0.63,-1.758 0.15,-0.472 0.12,-0.469 0.31,-0.93 0.04,-0.281 0.08,-0.231 0.16,-0.546 0.27,-1.09 0.16,-0.551 0.12,-0.59 0.31,-1.242 0.54,-2.699 0.08,-0.348 0.08,-0.391 0.16,-0.742 0.27,-1.57 0.16,-0.859 0.11,-0.821 0.28,-1.789 0.31,-1.879 0.27,-1.992 0.59,-4.41 0.04,-0.59 0.08,-0.547 0.15,-1.211 0.28,-2.5 0.54,-5.429 0.08,-0.704 0.08,-0.738 0.12,-1.488 0.31,-3.121 0.55,-6.84 0.07,-0.902 0.08,-0.93 0.12,-1.879 0.27,-3.91 0.59,-8.508 0.04,-1.133 0.08,-1.14 0.15,-2.34 0.28,-4.848 0.54,-10.539 0.16,-3.051 0.15,-3.16 0.32,-6.531 0.58,-14.25 0.08,-1.879 0.08,-1.91 0.16,-3.91 0.31,-8.09 0.58,-17.531 0.08,-2.309 0.08,-2.34 0.16,-4.769 0.31,-9.922 0.58,-21.168 1.22,-48.172 0.07,-3.039 0.08,-3.09 0.16,-6.211 0.27,-12.77 0.55,-26.64 1.13,-57.43 0.08,-3.711 0.08,-3.75 0.15,-7.57 0.28,-15.238 0.54,-30.899 1.14,-61.871 0.08,-4.262 0.07,-4.218 0.16,-8.36 0.35,-16.48 0.63,-31.449 0.07,-3.75 0.08,-3.711 0.16,-7.262 0.31,-13.867 0.08,-3.364 0.08,-3.277 0.15,-6.371 0.32,-11.91 0.07,-2.82 0.08,-2.731 0.16,-5.269 0.08,-2.5 0.08,-2.469 0.15,-4.602 0.08,-2.187 0.08,-2.114 0.15,-3.988 0.08,-1.828 0.08,-1.762 0.16,-3.281 0.07,-1.488 0.08,-1.403 0.08,-1.289 0.08,-1.211 0.08,-1.128 0.11,-1.02 0.08,-0.941 0.08,-0.817 0.08,-0.742 0.08,-0.621 0.07,-0.547 0.08,-0.473 0.08,-0.308 0.08,-0.281 0.08,-0.149 0.08,-0.039" /><path
         id="path42"
         style="fill:none;stroke:#5e81b5;stroke-width:4.05039978;stroke-linecap:square;stroke-linejoin:miter;stroke-miterlimit:3.25;stroke-dasharray:none;stroke-opacity:1"
         d="m 2652.3,559.102 h -0.31 l -0.19,0.039 -0.47,0.121 -0.2,0.039 -0.47,0.23 -0.19,0.117 -0.16,0.082 -0.31,0.231 -0.35,0.269 -0.16,0.122 -0.15,0.16 -0.36,0.269 -0.62,0.668 -1.48,1.481 -0.2,0.16 -0.31,0.269 -0.16,0.161 -0.19,0.109 -0.32,0.281 -0.15,0.11 -0.16,0.082 -0.19,0.117 -0.47,0.23 -0.16,0.043 -0.19,0.039 -0.32,0.078 h -0.35 l -0.16,-0.039 h -0.15 l -0.16,-0.078 -0.15,-0.043 -0.2,-0.07 -0.16,-0.078 -0.46,-0.352 -0.2,-0.16 -0.51,-0.508 -0.15,-0.23 -0.2,-0.242 -0.16,-0.227 -0.19,-0.281 -0.16,-0.309 -0.39,-0.582 -0.15,-0.359 -0.2,-0.352 -0.35,-0.699 -0.7,-1.641 -0.2,-0.429 -0.16,-0.43 -0.35,-0.898 -0.74,-1.832 -1.41,-3.75 -0.19,-0.43 -0.16,-0.469 -0.35,-0.82 -0.19,-0.43 -0.16,-0.391 -0.35,-0.75 -0.39,-0.699 -0.16,-0.312 -0.19,-0.27 -0.16,-0.277 -0.2,-0.274 -0.15,-0.238 -0.2,-0.191 -0.15,-0.199 -0.2,-0.149 -0.15,-0.121 -0.2,-0.121 -0.2,-0.078 -0.15,-0.031 -0.2,-0.04 -0.15,0.04 h -0.2 l -0.15,0.07 -0.2,0.082 -0.16,0.16 -0.19,0.148 -0.16,0.161 -0.39,0.468 -0.31,0.551 -0.16,0.309 -0.15,0.351 -0.2,0.352 -0.15,0.387 -0.32,0.82 -0.19,0.473 -0.47,1.519 -0.67,2.348 -0.19,0.621 -0.16,0.629 -0.31,1.371 -0.66,2.808 -1.33,6.133 -0.16,0.778 -0.19,0.781 -0.32,1.531 -0.66,3 -0.16,0.75 -0.15,0.699 -0.35,1.41 -0.67,2.61 -0.31,1.18 -0.35,1.089 -0.31,1.02 -0.36,0.891 -0.15,0.39 -0.32,0.711 -0.15,0.309 -0.2,0.269 -0.15,0.281 -0.32,0.391 -0.15,0.109 -0.2,0.122 -0.15,0.078 -0.16,0.039 h -0.31 l -0.16,-0.078 -0.15,-0.121 -0.2,-0.11 -0.31,-0.39 -0.16,-0.239 -0.15,-0.269 -0.16,-0.313 -0.16,-0.359 -0.19,-0.391 -0.16,-0.429 -0.31,-0.93 -0.31,-1.098 -0.16,-0.582 -0.35,-1.289 -0.31,-1.41 -0.32,-1.52 -0.66,-3.402 -0.16,-0.898 -0.15,-0.942 -0.32,-1.91 -0.66,-4.059 -1.29,-8.64 -0.15,-1.129 -0.47,-3.281 -0.67,-4.301 -0.31,-2.109 -0.31,-1.989 -0.67,-3.789 -0.15,-0.941 -0.2,-0.93 -0.35,-1.723 -0.16,-0.816 -0.19,-0.742 -0.31,-1.41 -0.2,-0.629 -0.16,-0.582 -0.19,-0.508 -0.16,-0.512 -0.19,-0.429 -0.16,-0.348 -0.19,-0.313 -0.16,-0.269 -0.35,-0.36 -0.2,-0.07 -0.15,-0.039 -0.2,0.039 -0.16,0.07 -0.35,0.36 -0.15,0.269 -0.2,0.313 -0.15,0.387 -0.2,0.472 -0.16,0.508 -0.19,0.551 -0.16,0.621 -0.19,0.699 -0.16,0.711 -0.19,0.82 -0.32,1.719 -0.19,0.969 -0.16,0.98 -0.35,2.153 -0.2,1.129 -0.15,1.168 -0.35,2.5 -0.71,5.351 -0.15,1.449 -0.2,1.442 -0.35,2.929 -0.7,6.102 -1.37,12.379 -0.16,1.41 -0.19,1.399 -0.31,2.781 -0.63,5.23 -0.19,1.25 -0.16,1.211 -0.31,2.309 -0.67,4.25 -0.15,0.98 -0.32,1.801 -0.15,0.816 -0.16,0.782 -0.19,0.742 -0.32,1.328 -0.15,0.59 -0.31,1.012 -0.16,0.429 -0.2,0.348 -0.15,0.351 -0.32,0.469 -0.15,0.16 -0.16,0.082 -0.15,0.039 -0.2,-0.039 -0.16,-0.082 -0.15,-0.117 -0.16,-0.191 -0.15,-0.281 -0.16,-0.309 -0.16,-0.352 -0.19,-0.429 -0.16,-0.508 -0.15,-0.543 -0.16,-0.59 -0.16,-0.668 -0.15,-0.699 -0.16,-0.781 -0.19,-0.821 -0.32,-1.8 -0.31,-2.028 -0.31,-2.222 -0.2,-1.18 -0.15,-1.211 -0.32,-2.609 -0.66,-5.668 -0.16,-1.641 -0.19,-1.68 -0.35,-3.48 -0.67,-7.262 -1.4,-15.391 -0.2,-1.949 -0.16,-1.918 -0.35,-3.832 -0.7,-7.34 -0.2,-1.8 -0.15,-1.719 -0.35,-3.36 -0.71,-6.128 -0.15,-1.372 -0.2,-1.32 -0.15,-1.289 -0.2,-1.211 -0.16,-1.101 -0.19,-1.09 -0.16,-0.977 -0.19,-0.902 -0.16,-0.82 -0.19,-0.739 -0.16,-0.66 -0.35,-1.062 -0.2,-0.43 -0.15,-0.309 -0.16,-0.23 -0.19,-0.121 -0.16,-0.039 -0.2,0.039 -0.15,0.152 -0.2,0.238 -0.15,0.313 -0.2,0.43 -0.16,0.507 -0.19,0.59 -0.16,0.699 -0.19,0.782 -0.16,0.859 -0.19,0.941 -0.16,1.051 -0.35,2.309 -0.16,1.281 -0.19,1.328 -0.32,2.891 -0.19,1.531 -0.16,1.598 -0.35,3.441 -0.16,1.75 -0.19,1.84 -0.35,3.832 -0.67,8.199 -0.15,2.11 -0.2,2.148 -0.35,4.371 -0.66,8.91 -1.37,17.77 -0.16,2.109 -0.19,2.11 -0.35,4.14 -0.67,7.781 -0.15,1.829 -0.2,1.8 -0.35,3.403 -0.16,1.597 -0.15,1.563 -0.36,2.93 -0.15,1.367 -0.2,1.293 -0.15,1.207 -0.16,1.172 -0.19,1.058 -0.16,1.012 -0.2,0.898 -0.15,0.86 -0.16,0.781 -0.19,0.66 -0.16,0.629 -0.16,0.512 -0.19,0.429 -0.16,0.352 -0.19,0.27 -0.16,0.199 -0.16,0.109 h -0.15 l -0.16,-0.031 -0.15,-0.16 -0.16,-0.199 -0.16,-0.27 -0.15,-0.352 -0.16,-0.429 -0.19,-0.508 -0.16,-0.582 -0.16,-0.668 -0.15,-0.699 -0.16,-0.821 -0.16,-0.859 -0.31,-1.953 -0.16,-1.098 -0.15,-1.172 -0.31,-2.5 -0.16,-1.367 -0.16,-1.402 -0.35,-3.051 -0.15,-1.598 -0.16,-1.679 -0.31,-3.52 -0.63,-7.652 -0.15,-2.039 -0.16,-2.071 -0.31,-4.289 -0.67,-8.949 -1.25,-19.023 -0.31,-4.848 -0.31,-4.801 -0.67,-9.449 -0.15,-2.351 -0.16,-2.258 -0.31,-4.461 -0.63,-8.469 -0.15,-2.152 -0.2,-2.071 -0.35,-3.949 -0.16,-1.871 -0.15,-1.797 -0.35,-3.32 -0.2,-1.481 -0.15,-1.449 -0.16,-1.332 -0.2,-1.211 -0.15,-1.129 -0.2,-1.019 -0.15,-0.891 -0.16,-0.781 -0.2,-0.707 -0.15,-0.551 -0.2,-0.461 -0.15,-0.32 -0.16,-0.231 -0.19,-0.078 h -0.16 l -0.2,0.16 -0.15,0.27 -0.16,0.391 -0.19,0.507 -0.16,0.621 -0.2,0.75 -0.15,0.86 -0.16,0.969 -0.19,1.062 -0.16,1.211 -0.16,1.328 -0.19,1.399 -0.16,1.531 -0.19,1.64 -0.16,1.719 -0.35,3.75 -0.16,1.992 -0.19,2.11 -0.32,4.41 -0.7,9.769 -0.15,2.571 -0.2,2.66 -0.31,5.469 -0.71,11.332 -1.36,23.468 -0.16,2.7 -0.15,2.73 -0.32,5.36 -0.66,10.39 -0.31,5 -0.32,4.801 -0.66,9.019 -0.16,2.11 -0.15,2.031 -0.32,3.91 -0.15,1.879 -0.16,1.75 -0.31,3.36 -0.16,1.57 -0.15,1.48 -0.16,1.41 -0.19,1.36 -0.16,1.25 -0.16,1.14 -0.15,1.09 -0.16,1.02 -0.16,0.89 -0.15,0.86 -0.16,0.75 -0.15,0.66 -0.16,0.551 -0.16,0.469 -0.15,0.39 -0.2,0.309 -0.16,0.191 -0.15,0.121 -0.16,0.039 -0.15,-0.078 -0.16,-0.152 -0.16,-0.238 -0.15,-0.352 -0.16,-0.43 -0.15,-0.55 -0.16,-0.579 -0.16,-0.742 -0.19,-0.789 -0.16,-0.89 -0.16,-0.981 -0.31,-2.187 -0.15,-1.25 -0.16,-1.332 -0.31,-2.891 -0.16,-1.598 -0.16,-1.64 -0.31,-3.551 -0.15,-1.879 -0.16,-1.91 -0.31,-4.102 -0.63,-8.949 -0.15,-2.379 -0.16,-2.461 -0.31,-5.039 -0.63,-10.742 -0.15,-2.777 -0.16,-2.813 -0.31,-5.738 -0.63,-11.762 -1.25,-23.988 -0.15,-2.922 -0.16,-2.969 -0.31,-5.789 -0.63,-11.172 -0.15,-2.687 -0.16,-2.621 -0.31,-5.082 -0.63,-9.329 -0.15,-2.109 -0.16,-2.07 -0.31,-3.871 -0.16,-1.758 -0.16,-1.68 -0.31,-3.082 -0.15,-1.371 -0.16,-1.289 -0.16,-1.168 -0.15,-1.023 -0.16,-0.93 -0.16,-0.828 -0.15,-0.699 -0.16,-0.582 -0.15,-0.508 -0.2,-0.313 -0.16,-0.238 -0.15,-0.039 -0.2,0.078 -0.15,0.23 -0.16,0.399 -0.16,0.5 -0.19,0.711 -0.16,0.781 -0.15,0.969 -0.2,1.101 -0.16,1.25 -0.15,1.36 -0.2,1.488 -0.15,1.641 -0.16,1.8 -0.19,1.872 -0.32,4.179 -0.19,2.231 -0.16,2.379 -0.35,5.039 -0.16,2.66 -0.15,2.769 -0.35,5.782 -0.67,12.5 -0.15,3.281 -0.2,3.32 -0.31,6.797 -0.71,14.02 -1.32,28.402 -0.16,3.48 -0.2,3.469 -0.31,6.801 -0.7,13.09 -0.16,3.16 -0.15,3.051 -0.35,5.968 -0.67,11.02 -0.16,2.379 -0.15,2.351 -0.31,4.372 -0.16,2.07 -0.16,1.988 -0.31,3.75 -0.16,1.762 -0.15,1.637 -0.16,1.562 -0.15,1.449 -0.16,1.41 -0.16,1.29 -0.15,1.171 -0.16,1.09 -0.16,1.02 -0.15,0.898 -0.16,0.821 -0.19,0.699 -0.16,0.621 -0.16,0.512 -0.15,0.39 -0.16,0.309 -0.15,0.238 -0.16,0.121 h -0.16 l -0.15,-0.078 -0.16,-0.203 -0.16,-0.309 -0.15,-0.39 -0.16,-0.508 -0.15,-0.582 -0.16,-0.711 -0.16,-0.777 -0.15,-0.903 -0.16,-0.969 -0.16,-1.101 -0.31,-2.5 -0.15,-1.359 -0.16,-1.489 -0.31,-3.242 -0.16,-1.758 -0.16,-1.871 -0.31,-3.988 -0.15,-2.113 -0.16,-2.219 -0.31,-4.649 -0.63,-10.32 -0.15,-2.769 -0.16,-2.852 -0.31,-5.859 -0.63,-12.539 -0.15,-3.512 -0.2,-3.641 -0.31,-7.34 -0.71,-15.23 -1.36,-31.289 -0.16,-3.91 -0.16,-3.871 -0.35,-7.61 -0.66,-14.687 -0.2,-3.52 -0.15,-3.441 -0.35,-6.602 -0.67,-12.07 -0.15,-2.77 -0.2,-2.617 -0.16,-2.461 -0.15,-2.383 -0.2,-2.226 -0.15,-2.07 -0.16,-1.911 -0.19,-1.8 -0.16,-1.602 -0.16,-1.488 -0.19,-1.281 -0.16,-1.141 -0.16,-0.969 -0.19,-0.82 -0.16,-0.629 -0.15,-0.469 -0.2,-0.273 -0.15,-0.117 -0.16,0.078 -0.2,0.23 -0.15,0.43 -0.16,0.629 -0.19,0.742 -0.16,0.98 -0.16,1.09 -0.19,1.289 -0.16,1.45 -0.15,1.64 -0.2,1.789 -0.16,1.922 -0.35,4.328 -0.15,2.391 -0.16,2.461 -0.35,5.39 -0.16,2.848 -0.15,3.012 -0.36,6.328 -0.15,3.281 -0.16,3.43 -0.35,7.07 -0.66,15.082 -0.32,7.887 -0.35,8.09 -1.99,49.332 -0.16,4.031 -0.15,3.938 -0.35,7.82 -0.67,14.922 -0.15,3.59 -0.16,3.48 -0.35,6.789 -0.67,12.539 -0.15,2.93 -0.16,2.82 -0.35,5.309 -0.16,2.543 -0.15,2.418 -0.35,4.492 -0.16,2.109 -0.16,1.989 -0.15,1.878 -0.2,1.762 -0.15,1.641 -0.16,1.519 -0.16,1.45 -0.19,1.281 -0.12,1.097 -0.16,1.012 -0.15,0.899 -0.16,0.781 -0.15,0.711 -0.16,0.578 -0.16,0.473 -0.15,0.39 -0.16,0.278 -0.16,0.152 -0.15,0.039 -0.16,-0.039 -0.15,-0.152 -0.16,-0.278 -0.16,-0.351 -0.15,-0.512 -0.16,-0.578 -0.16,-0.672 -0.15,-0.82 -0.16,-0.899 -0.15,-0.969 -0.16,-1.14 -0.12,-1.211 -0.15,-1.32 -0.16,-1.411 -0.16,-1.519 -0.31,-3.36 -0.16,-1.839 -0.15,-1.95 -0.31,-4.14 -0.16,-2.231 -0.16,-2.3 -0.31,-4.93 -0.62,-10.93 -0.16,-2.969 -0.16,-3.011 -0.27,-6.328 -0.63,-13.512 -0.15,-3.559 -0.16,-3.59 -0.31,-7.421 -0.63,-15.43 -1.21,-32.578 -0.19,-4.492 -0.16,-4.54 -0.31,-8.98 -0.7,-17.699 -0.16,-4.332 -0.16,-4.297 -0.35,-8.363 -0.66,-15.86 -0.16,-3.75 -0.15,-3.59 -0.36,-6.91 -0.15,-3.289 -0.16,-3.121 -0.35,-5.82 -0.16,-2.699 -0.19,-2.54 -0.16,-2.378 -0.15,-2.223 -0.16,-2.039 -0.2,-1.871 -0.15,-1.68 -0.16,-1.519 -0.15,-1.29 -0.2,-1.14 -0.16,-0.93 -0.15,-0.75 -0.2,-0.539 -0.15,-0.351 -0.16,-0.161 -0.16,0.082 -0.19,0.231 -0.16,0.469 -0.15,0.629 -0.16,0.859 -0.2,1.051 -0.15,1.211 -0.16,1.449 -0.19,1.64 -0.16,1.79 -0.16,2 -0.15,2.14 -0.2,2.391 -0.15,2.5 -0.16,2.691 -0.35,5.817 -0.16,3.171 -0.15,3.321 -0.36,6.988 -0.66,15.473 -0.16,3.828 -0.15,3.941 -0.31,8.09 -0.63,16.871 -1.25,35.348 -0.31,8.91 -0.31,8.871 -0.59,17.379 -1.25,32.66 -0.16,3.789 -0.15,3.75 -0.32,7.223 -0.62,13.519 -0.16,3.161 -0.15,3.046 -0.32,5.903 -0.62,10.539 -0.16,2.43 -0.15,2.3 -0.32,4.262 -0.15,1.988 -0.16,1.879 -0.31,3.391 -0.16,1.57 -0.15,1.442 -0.16,1.328 -0.16,1.25 -0.15,1.09 -0.16,1.019 -0.15,0.902 -0.16,0.778 -0.16,0.703 -0.15,0.59 -0.2,0.468 -0.15,0.309 -0.16,0.191 -0.16,0.04 -0.19,-0.071 -0.16,-0.199 -0.15,-0.352 -0.2,-0.468 -0.16,-0.629 -0.15,-0.742 -0.2,-0.86 -0.15,-1.008 -0.16,-1.14 -0.2,-1.281 -0.15,-1.411 -0.16,-1.519 -0.15,-1.641 -0.2,-1.801 -0.16,-1.918 -0.15,-2.07 -0.35,-4.488 -0.16,-2.422 -0.2,-2.539 -0.31,-5.469 -0.66,-12.422 -0.2,-3.359 -0.15,-3.512 -0.36,-7.308 -0.66,-15.899 -0.16,-4.222 -0.15,-4.29 -0.35,-8.871 -0.67,-18.629 -0.19,-4.851 -0.16,-4.879 -0.31,-9.918 -0.7,-20.281 -1.33,-40.821 -0.16,-4.878 -0.19,-4.883 -0.32,-9.528 -0.66,-18.171 -0.16,-4.29 -0.15,-4.218 -0.35,-8.051 -0.16,-3.832 -0.16,-3.707 -0.35,-6.91 -0.16,-3.242 -0.15,-3.09 -0.16,-2.891 -0.15,-2.738 -0.2,-2.531 -0.16,-2.348 -0.15,-2.152 -0.16,-1.95 -0.19,-1.761 -0.16,-1.559 -0.16,-1.328 -0.15,-1.133 -0.16,-0.898 -0.19,-0.7 -0.16,-0.472 -0.16,-0.27 -0.15,-0.039 -0.2,0.192 -0.15,0.429 -0.16,0.629 -0.16,0.86 -0.15,1.05 -0.2,1.289 -0.15,1.481 -0.16,1.719 -0.16,1.921 -0.15,2.141 -0.2,2.309 -0.15,2.539 -0.16,2.73 -0.35,5.981 -0.16,3.242 -0.15,3.437 -0.32,7.34 -0.66,16.41 -0.16,4.411 -0.19,4.531 -0.32,9.379 -0.66,19.769 -0.16,4.762 -0.15,4.809 -0.31,9.722 -0.59,19.688 -1.25,39.261 -0.31,9.528 -0.32,9.332 -0.58,18.051 -0.16,4.339 -0.15,4.289 -0.32,8.321 -0.62,15.75 -0.16,3.711 -0.15,3.629 -0.28,6.949 -0.15,3.359 -0.16,3.25 -0.31,6.211 -0.16,2.961 -0.15,2.859 -0.32,5.391 -0.15,2.539 -0.16,2.422 -0.31,4.566 -0.12,2.114 -0.16,2.027 -0.15,1.871 -0.16,1.801 -0.15,1.68 -0.16,1.601 -0.31,2.809 -0.16,1.219 -0.16,1.128 -0.15,1.051 -0.16,0.903 -0.15,0.777 -0.16,0.711 -0.12,0.539 -0.15,0.473 -0.2,0.39 -0.16,0.238 -0.15,0.11 -0.16,-0.039 -0.19,-0.153 -0.16,-0.269 -0.16,-0.43 -0.15,-0.551 -0.2,-0.668 -0.15,-0.82 -0.16,-0.93 -0.16,-1.101 -0.19,-1.207 -0.16,-1.332 -0.15,-1.481 -0.16,-1.597 -0.2,-1.723 -0.15,-1.879 -0.31,-4.101 -0.2,-2.258 -0.16,-2.391 -0.31,-5.109 -0.19,-2.781 -0.16,-2.891 -0.35,-6.129 -0.67,-13.789 -0.15,-3.711 -0.16,-3.871 -0.35,-8.039 -0.66,-17.391 -1.33,-39.289 -0.16,-5.281 -0.15,-5.309 -0.36,-10.82 -0.66,-22.191 -1.33,-45.039 -0.15,-5.188 -0.16,-5.16 -0.27,-10.121 -0.63,-19.531 -0.16,-4.68 -0.15,-4.57 -0.31,-8.872 -0.63,-16.289 -0.16,-3.711 -0.15,-3.597 -0.31,-6.672 -0.16,-3.09 -0.16,-2.93 -0.31,-5.269 -0.16,-2.391 -0.15,-2.179 -0.16,-1.961 -0.15,-1.758 -0.16,-1.602 -0.16,-1.32 -0.15,-1.18 -0.16,-0.898 -0.12,-0.742 -0.15,-0.508 -0.16,-0.27 -0.15,-0.039 -0.16,0.156 -0.16,0.391 -0.15,0.59 -0.16,0.82 -0.16,1.051 -0.15,1.25 -0.16,1.449 -0.16,1.672 -0.15,1.879 -0.16,2.109 -0.15,2.301 -0.16,2.469 -0.16,2.691 -0.15,2.891 -0.31,6.289 -0.16,3.398 -0.16,3.551 -0.31,7.621 -0.16,4.059 -0.15,4.141 -0.32,8.75 -0.58,18.91 -0.16,4.879 -0.15,4.961 -0.32,10.121 -0.62,20.941 -1.21,43.078 -0.12,5.391 -0.16,5.359 -0.31,10.66 -0.62,20.899 -1.21,39.062 -0.16,4.571 -0.16,4.488 -0.27,8.711 -0.62,16.41 -0.16,3.871 -0.16,3.75 -0.27,7.258 -0.63,13.289 -0.15,3.082 -0.16,2.93 -0.27,5.629 -0.16,2.652 -0.15,2.539 -0.32,4.769 -0.15,2.219 -0.16,2.11 -0.16,1.992 -0.15,1.918 -0.12,1.801 -0.16,1.679 -0.31,3.043 -0.15,1.449 -0.2,1.36 -0.16,1.219 -0.15,1.089 -0.16,0.942 -0.15,0.859 -0.2,0.699 -0.16,0.551 -0.15,0.469 -0.16,0.312 -0.15,0.188 -0.2,0.082 -0.16,-0.039 -0.15,-0.192 -0.16,-0.32 -0.15,-0.461 -0.2,-0.551 -0.16,-0.699 -0.15,-0.82 -0.16,-0.981 -0.19,-1.058 -0.16,-1.211 -0.16,-1.328 -0.15,-1.481 -0.16,-1.601 -0.19,-1.719 -0.16,-1.84 -0.16,-1.949 -0.15,-2.109 -0.16,-2.223 -0.35,-4.848 -0.16,-2.621 -0.15,-2.73 -0.35,-5.86 -0.16,-3.121 -0.16,-3.25 -0.35,-6.828 -0.16,-3.641 -0.15,-3.71 -0.31,-7.848 -0.67,-17.07 -0.15,-4.571 -0.2,-4.652 -0.31,-9.649 -0.67,-20.539 -1.32,-45.121 -0.16,-5.55 -0.16,-5.579 -0.27,-11.25 -0.63,-22.851 -1.25,-45.43 -0.11,-5.551 -0.16,-5.468 -0.31,-10.743 -0.63,-20.468 -0.15,-4.84 -0.16,-4.77 -0.31,-9.058 -0.16,-4.34 -0.15,-4.223 -0.28,-7.89 -0.15,-3.668 -0.16,-3.551 -0.16,-3.32 -0.15,-3.168 -0.16,-2.93 -0.15,-2.774 -0.16,-2.539 -0.16,-2.339 -0.15,-2.11 -0.16,-1.918 -0.16,-1.683 -0.15,-1.438 -0.16,-1.211 -0.12,-0.98 -0.15,-0.739 -0.16,-0.511 -0.15,-0.309 h -0.16 l -0.16,0.188 -0.15,0.433 -0.16,0.668 -0.16,0.93 -0.15,1.14 -0.16,1.399 -0.15,1.641 -0.16,1.839 -0.16,2.071 -0.11,2.3 -0.16,2.5 -0.16,2.739 -0.31,6.09 -0.16,3.601 -0.19,3.86 -0.31,8.359 -0.16,4.461 -0.19,4.68 -0.32,9.89 -0.19,5.192 -0.16,5.347 -0.31,11.102 -0.67,23.629 -0.19,6.172 -0.16,6.207 -0.31,12.621 -0.66,25.699 -1.37,51.41 -0.16,6.293 -0.15,6.207 -0.35,12.231 -0.67,23.589 -0.16,5.661 -0.15,5.589 -0.35,10.86 -0.67,20.472 -0.15,4.84 -0.16,4.688 -0.35,9.101 -0.16,4.34 -0.15,4.25 -0.36,8.09 -0.15,3.871 -0.16,3.75 -0.35,7.07 -0.66,12.649 -0.16,2.781 -0.16,2.688 -0.35,4.961 -0.15,2.312 -0.16,2.188 -0.31,3.98 -0.16,1.801 -0.19,1.679 -0.16,1.559 -0.16,1.441 -0.15,1.329 -0.16,1.211 -0.19,1.062 -0.16,0.969 -0.16,0.82 -0.15,0.75 -0.16,0.578 -0.16,0.473 -0.19,0.387 -0.16,0.242 -0.15,0.109 h -0.16 l -0.16,-0.109 -0.19,-0.242 -0.16,-0.387 -0.15,-0.473 -0.16,-0.578 -0.16,-0.75 -0.19,-0.82 -0.16,-0.969 -0.15,-1.062 -0.16,-1.211 -0.16,-1.329 -0.15,-1.441 -0.2,-1.559 -0.15,-1.679 -0.32,-3.75 -0.15,-2.031 -0.2,-2.188 -0.31,-4.73 -0.16,-2.543 -0.15,-2.649 -0.35,-5.711 -0.16,-3.039 -0.16,-3.168 -0.31,-6.683 -0.2,-3.547 -0.15,-3.672 -0.31,-7.66 -0.16,-4.059 -0.16,-4.141 -0.35,-8.679 -0.66,-18.711 -0.12,-4.641 -0.16,-4.73 -0.31,-9.77 -0.62,-20.617 -1.21,-45 -0.16,-5.902 -0.16,-5.981 -0.31,-12.027 -0.58,-24.531 -1.25,-49.18 -0.12,-6.012 -0.16,-5.98 -0.31,-11.797 -0.63,-22.582 -0.15,-5.391 -0.16,-5.269 -0.27,-10.2 -0.63,-18.55 -0.15,-4.219 -0.16,-4.063 -0.16,-3.867 -0.15,-3.672 -0.16,-3.437 -0.12,-3.281 -0.31,-5.86 -0.15,-2.582 -0.16,-2.34 -0.16,-2.148 -0.15,-1.871 -0.16,-1.641 -0.15,-1.367 -0.16,-1.133 -0.16,-0.898 -0.15,-0.672 -0.16,-0.348 -0.16,-0.082 -0.15,0.281 -0.2,0.54 -0.15,0.859 -0.16,1.141 -0.16,1.441 -0.19,1.758 -0.16,2.07 -0.15,2.301 -0.16,2.66 -0.2,2.891 -0.15,3.16 -0.31,7.109 -0.2,3.949 -0.16,4.223 -0.31,9.059 -0.19,4.839 -0.16,5.079 -0.31,10.711 -0.2,5.621 -0.15,5.781 -0.32,12.027 -0.66,25.551 -0.16,6.602 -0.19,6.718 -0.32,13.629 -0.66,27.699 -1.33,55.274 -0.15,6.758 -0.2,6.679 -0.31,13.161 -0.67,25.359 -1.32,45.93 -0.16,4.89 -0.16,4.801 -0.31,9.262 -0.62,17.218 -0.16,4.032 -0.16,3.898 -0.27,7.539 -0.62,13.711 -0.16,3.172 -0.16,3.047 -0.31,5.742 -0.16,2.731 -0.15,2.617 -0.31,4.883 -0.16,2.308 -0.16,2.141 -0.31,4.07 -0.16,1.871 -0.15,1.758 -0.31,3.242 -0.16,1.449 -0.16,1.329 -0.15,1.25 -0.16,1.171 -0.16,1.051 -0.15,0.938 -0.16,0.859 -0.15,0.742 -0.12,0.668 -0.16,0.543 -0.15,0.43 -0.16,0.348 -0.16,0.281 -0.15,0.148 -0.16,0.043 -0.16,-0.043 -0.15,-0.109 -0.16,-0.238 -0.15,-0.352 -0.16,-0.43 -0.16,-0.511 -0.15,-0.661 -0.16,-0.699 -0.16,-0.828 -0.15,-0.93 -0.16,-1.019 -0.15,-1.133 -0.16,-1.25 -0.16,-1.328 -0.15,-1.41 -0.32,-3.16 -0.15,-1.719 -0.16,-1.793 -0.27,-3.91 -0.16,-2.071 -0.15,-2.226 -0.32,-4.692 -0.15,-2.5 -0.16,-2.609 -0.27,-5.512 -0.63,-12.339 -0.15,-3.321 -0.16,-3.437 -0.31,-7.231 -0.59,-15.699 -0.15,-4.223 -0.16,-4.3 -0.31,-8.899 -0.59,-19.109 -0.16,-5 -0.15,-5.11 -0.31,-10.55 -0.59,-22.231 -1.25,-48.39 -2.42,-104.731 -0.16,-6.988 -0.19,-6.961 -0.32,-13.668 -0.66,-26.012 -0.16,-6.18 -0.15,-6.011 -0.35,-11.52 -0.16,-5.469 -0.16,-5.281 -0.35,-9.879 -0.15,-4.609 -0.16,-4.332 -0.2,-4.109 -0.15,-3.821 -0.16,-3.558 -0.15,-3.243 -0.16,-3.007 -0.2,-2.692 -0.15,-2.39 -0.16,-2.067 -0.15,-1.762 -0.2,-1.441 -0.16,-1.09 -0.15,-0.789 -0.16,-0.461 -0.19,-0.117 -0.16,0.188 -0.16,0.511 -0.15,0.899 -0.2,1.172 -0.15,1.519 -0.16,1.84 -0.16,2.148 -0.19,2.5 -0.16,2.77 -0.15,3.09 -0.16,3.402 -0.16,3.668 -0.19,3.941 -0.16,4.219 -0.31,9.223 -0.2,5 -0.15,5.238 -0.32,11.09 -0.66,24.492 -0.19,6.559 -0.16,6.679 -0.31,13.75 -0.67,28.68 -0.15,6.832 -0.16,6.879 -0.31,13.899 -0.63,27.89 -1.25,54.731 -0.15,6.64 -0.16,6.559 -0.31,12.89 -0.59,24.77 -1.25,45 -0.16,5.16 -0.15,5.07 -0.31,9.731 -0.63,18.199 -0.15,4.301 -0.16,4.141 -0.31,7.968 -0.63,14.649 -0.16,3.402 -0.15,3.277 -0.31,6.25 -0.16,2.973 -0.16,2.848 -0.31,5.39 -0.15,2.539 -0.12,2.461 -0.31,4.61 -0.16,2.152 -0.16,2.027 -0.31,3.832 -0.2,1.911 -0.15,1.8 -0.16,1.68 -0.19,1.559 -0.16,1.48 -0.16,1.371 -0.19,1.25 -0.16,1.129 -0.15,1.059 -0.16,0.941 -0.19,0.86 -0.16,0.699 -0.16,0.66 -0.19,0.512 -0.16,0.429 -0.16,0.352 -0.19,0.238 -0.16,0.11 -0.15,0.039 -0.2,-0.079 -0.15,-0.191 -0.16,-0.269 -0.2,-0.36 -0.15,-0.461 -0.16,-0.59 -0.15,-0.66 -0.2,-0.789 -0.16,-0.89 -0.15,-0.981 -0.2,-1.059 -0.15,-1.21 -0.16,-1.29 -0.2,-1.398 -0.15,-1.492 -0.16,-1.598 -0.19,-1.722 -0.16,-1.829 -0.16,-1.921 -0.35,-4.219 -0.15,-2.262 -0.2,-2.379 -0.31,-5.078 -0.2,-2.742 -0.15,-2.848 -0.35,-6.012 -0.16,-3.21 -0.16,-3.36 -0.35,-6.988 -0.15,-3.711 -0.2,-3.832 -0.31,-8.039 -0.2,-4.219 -0.15,-4.34 -0.32,-9.062 -0.7,-19.77 -0.16,-4.918 -0.15,-5.039 -0.31,-10.39 -0.63,-22.192 -1.29,-49.449 -0.16,-6.641 -0.15,-6.679 -0.31,-13.672 -0.63,-28.129 -1.25,-58.238 -0.16,-7.34 -0.15,-7.313 -0.35,-14.527 -0.63,-28.442 -0.15,-6.91 -0.16,-6.8 -0.31,-13.278 -0.63,-24.922 -0.15,-5.82 -0.16,-5.621 -0.35,-10.629 -0.16,-5 -0.15,-4.77 -0.32,-8.82 -0.15,-4.031 -0.16,-3.75 -0.16,-3.469 -0.15,-3.211 -0.16,-2.89 -0.15,-2.61 -0.16,-2.308 -0.16,-1.993 -0.15,-1.636 -0.16,-1.371 -0.16,-1.012 -0.15,-0.75 -0.16,-0.387 -0.15,-0.082 -0.16,0.199 -0.16,0.551 -0.15,0.86 -0.16,1.171 -0.16,1.481 -0.15,1.758 -0.16,2.109 -0.15,2.383 -0.16,2.699 -0.16,3.008 -0.15,3.242 -0.16,3.551 -0.31,7.93 -0.16,4.339 -0.15,4.571 -0.32,9.879 -0.15,5.308 -0.16,5.473 -0.31,11.598 -0.63,25.242 -0.15,6.679 -0.16,6.789 -0.31,13.95 -0.63,28.949 -1.25,59.762 -0.15,7.5 -0.16,7.418 -0.31,14.812 -0.63,28.899 -1.25,54.222 -0.15,6.879 -0.2,6.75 -0.35,13.168 -0.66,24.731 -0.16,5.82 -0.2,5.699 -0.31,11.012 -0.7,20.359 -0.16,4.719 -0.15,4.652 -0.36,8.789 -0.19,4.219 -0.16,4.102 -0.35,7.769 -0.16,3.719 -0.15,3.59 -0.35,6.801 -0.71,12.14 -0.15,2.738 -0.16,2.653 -0.35,4.969 -0.16,2.3 -0.19,2.231 -0.35,4.14 -0.16,1.868 -0.16,1.839 -0.19,1.723 -0.16,1.598 -0.15,1.523 -0.2,1.449 -0.35,2.579 -0.16,1.128 -0.15,1.094 -0.2,0.977 -0.15,0.902 -0.16,0.777 -0.2,0.743 -0.15,0.629 -0.2,0.539 -0.15,0.472 -0.16,0.391 -0.2,0.308 -0.15,0.2 -0.16,0.16 -0.19,0.039 h -0.16 l -0.19,-0.117 -0.16,-0.203 -0.16,-0.227 -0.15,-0.312 -0.16,-0.399 -0.16,-0.422 -0.15,-0.551 -0.16,-0.589 -0.15,-0.7 -0.16,-0.738 -0.2,-0.82 -0.15,-0.903 -0.16,-0.937 -0.15,-1.051 -0.16,-1.14 -0.31,-2.461 -0.16,-1.36 -0.16,-1.41 -0.35,-3.09 -0.15,-1.679 -0.16,-1.75 -0.31,-3.79 -0.16,-2 -0.16,-2.109 -0.31,-4.449 -0.66,-10.043 -0.16,-2.731 -0.15,-2.847 -0.32,-6.02 -0.15,-3.121 -0.16,-3.289 -0.35,-6.789 -0.16,-3.602 -0.15,-3.671 -0.32,-7.688 -0.66,-16.801 -0.16,-4.488 -0.15,-4.613 -0.32,-9.571 -0.66,-20.589 -0.16,-5.469 -0.15,-5.578 -0.31,-11.532 -0.67,-24.488 -0.15,-6.953 -0.2,-7.07 -0.31,-14.571 -0.71,-30.628 -1.4,-65.86 -0.2,-8.512 -0.15,-8.558 -0.35,-17.141 -0.71,-34.179 -0.19,-8.438 -0.16,-8.363 -0.35,-16.489 -0.7,-31.398 -0.2,-7.461 -0.16,-7.23 -0.35,-13.832 -0.19,-6.559 -0.16,-6.289 -0.35,-11.762 -0.2,-5.39 -0.15,-5.079 -0.2,-4.761 -0.15,-4.418 -0.2,-4.02 -0.16,-3.672 -0.19,-3.277 -0.16,-2.852 -0.19,-2.5 -0.16,-2.07 -0.19,-1.64 -0.16,-1.219 -0.19,-0.781 -0.16,-0.391 -0.2,0.082 -0.15,0.508 -0.2,0.941 -0.15,1.399 -0.2,1.8 -0.16,2.231 -0.19,2.652 -0.16,3.047 -0.19,3.481 -0.16,3.859 -0.19,4.141 -0.16,4.531 -0.35,10.121 -0.2,5.547 -0.15,5.863 -0.36,12.617 -0.15,6.711 -0.2,6.961 -0.35,14.649 -0.7,31.601 -0.16,8.277 -0.19,8.442 -0.32,17.14 -0.7,35.122 -1.4,70.468 -0.2,8.59 -0.16,8.52 -0.35,16.8 -0.7,32.219 -0.16,7.781 -0.19,7.61 -0.35,14.851 -0.71,28.008 -0.15,6.641 -0.2,6.48 -0.35,12.5 -0.7,23.239 -0.16,5.433 -0.2,5.278 -0.35,10.109 -0.7,18.562 -0.16,3.981 -0.15,3.91 -0.32,7.418 -0.19,3.52 -0.16,3.429 -0.31,6.571 -0.16,3.121 -0.19,3.007 -0.31,5.704 -0.67,10.308 -0.15,2.352 -0.16,2.258 -0.35,4.3 -0.16,1.989 -0.15,1.921 -0.36,3.629 -0.15,1.723 -0.16,1.598 -0.35,3.05 -0.16,1.399 -0.15,1.332 -0.31,2.5 -0.2,1.129 -0.16,1.101 -0.15,1.008 -0.16,0.981 -0.19,0.902 -0.16,0.816 -0.31,1.524 -0.2,0.668 -0.15,0.621 -0.16,0.551 -0.16,0.508 -0.19,0.429 -0.16,0.391 -0.15,0.351 -0.16,0.27 -0.2,0.269 -0.31,0.321 -0.15,0.07 -0.2,0.039 -0.31,-0.07 -0.16,-0.121 -0.19,-0.199 -0.16,-0.188 -0.16,-0.281 -0.35,-0.699 -0.15,-0.43 -0.16,-0.473 -0.16,-0.5 -0.19,-0.629 -0.2,-0.699 -0.15,-0.75 -0.2,-0.82 -0.19,-0.891 -0.51,-3.051 -0.2,-1.129 -0.19,-1.25 -0.35,-2.621 -0.2,-1.449 -0.16,-1.519 -0.39,-3.243 -0.15,-1.757 -0.2,-1.84 -0.35,-3.903 -0.19,-2.109 -0.16,-2.148 -0.39,-4.649 -0.16,-2.461 -0.19,-2.539 -0.36,-5.433 -0.74,-12.11 -0.19,-3.32 -0.16,-3.43 -0.39,-7.23 -0.16,-3.789 -0.19,-3.95 -0.39,-8.281 -0.16,-4.328 -0.19,-4.461 -0.35,-9.371 -0.75,-20.547 -0.19,-5.543 -0.16,-5.668 -0.39,-11.832 -0.74,-25.59 -0.16,-6.839 -0.19,-6.95 -0.35,-14.449 -0.75,-30.781 -0.19,-7.539 -0.16,-7.66 -0.35,-15.7 -0.7,-32.742 -1.37,-69.367 -0.16,-8.871 -0.19,-8.871 -0.35,-17.731 -0.71,-34.879 -0.15,-8.558 -0.16,-8.442 -0.35,-16.441 -0.7,-30.898 -0.2,-7.192 -0.16,-6.949 -0.35,-13.121 -0.15,-6.098 -0.2,-5.82 -0.35,-10.621 -0.16,-4.77 -0.19,-4.41 -0.16,-4.031 -0.19,-3.59 -0.16,-3.238 -0.19,-2.781 -0.16,-2.379 -0.2,-1.95 -0.15,-1.492 -0.2,-1.008 -0.15,-0.589 -0.2,-0.153 -0.16,0.352 -0.19,0.781 -0.16,1.25 -0.19,1.68 -0.16,2.187 -0.19,2.571 -0.16,3.05 -0.2,3.52 -0.15,3.902 -0.2,4.34 -0.15,4.719 -0.2,5.121 -0.15,5.43 -0.2,5.738 -0.35,12.5 -0.16,6.762 -0.15,7.027 -0.36,14.851 -0.19,7.809 -0.16,8.051 -0.35,16.68 -0.7,35.351 -0.16,9.141 -0.19,9.218 -0.35,18.668 -0.71,37.653 -1.4,73.871 -0.16,8.867 -0.2,8.75 -0.35,17.152 -0.7,32.688 -0.16,7.851 -0.19,7.661 -0.35,14.839 -0.71,27.821 -0.15,6.558 -0.2,6.411 -0.35,12.261 -0.16,5.899 -0.19,5.742 -0.35,11.019 -0.2,5.27 -0.15,5.121 -0.36,9.797 -0.74,17.851 -0.19,4.461 -0.16,4.289 -0.39,8.168 -0.2,3.872 -0.19,3.71 -0.39,6.989 -0.2,3.32 -0.19,3.16 -0.39,6.02 -0.78,10.621 -0.2,2.39 -0.2,2.301 -0.39,4.301 -0.19,1.988 -0.2,1.95 -0.43,3.601 -0.19,1.68 -0.2,1.597 -0.39,2.973 -0.19,1.399 -0.2,1.332 -0.39,2.457 -0.19,1.14 -0.2,1.09 -0.39,2.031 -0.19,0.899 -0.24,0.902 -0.39,1.598 -0.2,0.742 -0.39,1.328 -0.39,1.172 -0.19,0.508 -0.43,0.98 -0.39,0.781 -0.2,0.352 -0.39,0.617 -0.23,0.242 -0.2,0.231 -0.19,0.199 -0.39,0.309 -0.2,0.121 -0.23,0.07 -0.39,0.078 h -0.2 l -0.39,-0.078 -0.39,-0.152 -0.2,-0.117 -0.39,-0.313 -0.39,-0.391 -0.15,-0.238 -0.2,-0.23 -0.19,-0.309 -0.2,-0.281 -0.39,-0.699 -0.39,-0.743 -0.2,-0.429 -0.19,-0.469 -0.39,-0.98 -0.2,-0.5 -0.19,-0.59 -0.39,-1.211 -0.2,-0.629 -0.19,-0.699 -0.39,-1.442 -0.79,-3.32 -0.19,-0.899 -0.2,-0.98 -0.39,-2.031 -0.19,-1.09 -0.2,-1.137 -0.39,-2.383 -0.19,-1.25 -0.2,-1.328 -0.39,-2.812 -0.82,-6.25 -0.19,-1.719 -0.2,-1.801 -0.39,-3.789 -0.24,-1.988 -0.19,-2.07 -0.39,-4.372 -0.2,-2.351 -0.23,-2.379 -0.39,-5.078 -0.82,-11.293 -0.24,-3.469 -0.23,-3.601 -0.43,-7.61 -0.23,-4.027 -0.24,-4.223 -0.47,-8.898 -0.23,-4.692 -0.24,-4.879 -0.47,-10.359 -0.93,-23.121 -0.24,-6.328 -0.27,-6.563 -0.47,-13.789 -0.94,-30.468 -0.27,-8.282 -0.23,-8.48 -0.47,-17.809 -1.02,-38.75 -0.23,-10.312 -0.24,-10.59 -0.51,-21.867 -1.01,-46.371 -0.27,-12.071 -0.28,-12.23 -0.51,-24.758 -1.05,-50.312 -0.27,-12.5 -0.28,-12.43 -0.54,-24.41 -0.28,-11.84 -0.27,-11.598 -0.55,-22.031 -0.31,-10.352 -0.27,-9.839 -0.32,-9.219 -0.27,-8.52 -0.31,-7.812 -0.32,-6.949 -0.31,-6.02 -0.31,-5.039" /><g
         id="g44"><g
           clip-path="url(#clipPath50)"
           id="g46"><path
             id="path52"
             style="fill:none;stroke:#5e81b5;stroke-width:4.05039978;stroke-linecap:square;stroke-linejoin:miter;stroke-miterlimit:3.25;stroke-dasharray:none;stroke-opacity:1"
             d="m 2652.34,559.102 h 345.2" /></g></g><path
         id="path54"
         style="fill:none;stroke:#ff0000;stroke-width:16;stroke-linecap:square;stroke-linejoin:miter;stroke-miterlimit:3.25;stroke-dasharray:40, 40;stroke-dashoffset:0;stroke-opacity:1"
         d="m 2652.3,559.059 -0.31,-0.227 -0.35,-0.281 -1.99,-1.403 -2.62,-1.918 -5.27,-3.781 -11.41,-8.09 -10.58,-7.5 -10.36,-7.23 -11.17,-7.731 -10.35,-7.148 -11.21,-7.621 -10.94,-7.379 -10.15,-6.801 -11.02,-7.258 -10.19,-6.722 -10,-6.489 -10.83,-6.949 -10.03,-6.41 -10.86,-6.871 -10.63,-6.641 -9.88,-6.089 -10.7,-6.571 -9.97,-6.051 -10.74,-6.449 -10.54,-6.25 -9.85,-5.777 -10.66,-6.172 -9.92,-5.66 -9.73,-5.508 -10.51,-5.941 -9.84,-5.43 -10.67,-5.82 -10.47,-5.661 -9.76,-5.199 -10.63,-5.582 -9.92,-5.16 -9.76,-5 -10.59,-5.309 -9.92,-4.96 -10.82,-5.278 -10.16,-4.883 -10,-4.687 -10.94,-5.082 -10.27,-4.641 -11.29,-5 -11.17,-4.89 -10.62,-4.45 -11.68,-4.808 -11.18,-4.41 -11.29,-4.301 -12.73,-4.57 -0.16,-0.071 -0.19,-0.078 -0.39,-0.121 -0.78,-0.27 -1.53,-0.55 -3.12,-1.051 -6.49,-2.109 -0.19,-0.079 -0.24,-0.082 -0.46,-0.117 -0.94,-0.312 -1.92,-0.59 -3.9,-1.168 -0.24,-0.082 -0.27,-0.07 -0.51,-0.122 -1.01,-0.308 -2.15,-0.59 -0.55,-0.16 -0.55,-0.11 -1.17,-0.32 -0.27,-0.07 -0.31,-0.078 -0.63,-0.121 -0.31,-0.082 -0.7,-0.149 -0.39,-0.078" /><path
         id="path56"
         style="fill:none;stroke:#ff0000;stroke-width:16;stroke-linecap:square;stroke-linejoin:miter;stroke-miterlimit:3.25;stroke-dasharray:40, 40;stroke-dashoffset:0;stroke-opacity:1"
         d="m 2652.3,559.141 -0.31,0.238 -0.35,0.23 -0.66,0.473 -1.33,0.969 -2.62,1.879 -5.27,3.832 -11.41,8.238 -10.58,7.66 -10.36,7.5 -11.17,8.082 -10.35,7.539 -11.21,8.129 -10.94,7.969 -10.15,7.383 -11.02,8.008 -10.19,7.421 -10,7.258 -10.83,7.852 -10.03,7.269 -10.86,7.891 -10.63,7.699 -9.88,7.141 -10.7,7.738 -9.97,7.231 -10.74,7.73 -10.54,7.621 -20.51,14.649 -9.92,7.109 -9.73,6.91 -10.51,7.461 -9.84,6.949 -10.67,7.543 -10.47,7.309 -9.76,6.828 -10.63,7.391 -9.92,6.832 -9.76,6.679 -10.59,7.231 -9.92,6.718 -10.82,7.262 -10.16,6.719 -10,6.598 -10.94,7.113 -10.27,6.598 -11.29,7.152 -11.17,6.988 -10.62,6.488 -11.68,6.993 -11.18,6.519 -11.29,6.332 -12.73,6.879 -12.66,6.399 -0.19,0.121 -0.24,0.078 -0.46,0.23 -0.94,0.43 -1.92,0.902 -3.9,1.801 -0.24,0.078 -0.27,0.11 -0.51,0.242 -1.01,0.429 -2.15,0.899 -0.55,0.23 -0.55,0.2 -1.17,0.46 -0.27,0.122 -0.31,0.078 -0.94,0.351 -0.7,0.239 -0.39,0.07" /><path
         id="path58"
         style="fill:none;stroke:#000000;stroke-width:5;stroke-linecap:butt;stroke-linejoin:miter;stroke-miterlimit:3.25;stroke-dasharray:none;stroke-opacity:1"
         d="M 2126.45,169.922 V 198.75" /><g
         transform="scale(10)"
         id="g60"><text
           id="text64"
           style="font-variant:normal;font-size:12px;font-family:f-0;-inkscape-font-specification:f-0-1;writing-mode:lr-tb;fill:#000000;fill-opacity:1;fill-rule:nonzero;stroke:none"
           transform="matrix(1,0,0,-1,207.359,2.55586)"><tspan
             id="tspan62"
             y="0"
             x="0">τ</tspan></text>
<text
           id="text68"
           style="font-variant:normal;font-size:8.5195303px;font-family:f-1;-inkscape-font-specification:f-1-0;writing-mode:lr-tb;fill:#000000;fill-opacity:1;fill-rule:nonzero;stroke:none"
           transform="matrix(1,0,0,-1,212.69103,0.55586)"><tspan
             id="tspan66"
             y="0"
             x="0">2</tspan></text>
</g><path
         id="path70"
         style="fill:none;stroke:#000000;stroke-width:5;stroke-linecap:butt;stroke-linejoin:miter;stroke-miterlimit:3.25;stroke-dasharray:none;stroke-opacity:1"
         d="M 2652.34,169.922 V 198.75" /><g
         transform="scale(10)"
         id="g72"><text
           id="text76"
           style="font-variant:normal;font-size:12px;font-family:f-0;-inkscape-font-specification:f-0-1;writing-mode:lr-tb;fill:#000000;fill-opacity:1;fill-rule:nonzero;stroke:none"
           transform="matrix(1,0,0,-1,259.951,2.55586)"><tspan
             id="tspan74"
             y="0"
             x="0">τ</tspan></text>
<text
           id="text80"
           style="font-variant:normal;font-size:8.5195303px;font-family:f-1;-inkscape-font-specification:f-1-0;writing-mode:lr-tb;fill:#000000;fill-opacity:1;fill-rule:nonzero;stroke:none"
           transform="matrix(1,0,0,-1,265.28303,0.55586)"><tspan
             id="tspan78"
             y="0"
             x="0">1</tspan></text>
</g><path
         id="path82"
         style="fill:none;stroke:#000000;stroke-width:5;stroke-linecap:butt;stroke-linejoin:miter;stroke-miterlimit:3.25;stroke-dasharray:none;stroke-opacity:1"
         d="M 975.898,169.922 V 198.75" /><g
         transform="scale(10)"
         id="g84"><text
           id="text88"
           style="font-variant:normal;font-size:12px;font-family:f-0;-inkscape-font-specification:f-0-1;writing-mode:lr-tb;fill:#000000;fill-opacity:1;fill-rule:nonzero;stroke:none"
           transform="matrix(1,0,0,-1,92.3039,2.55586)"><tspan
             id="tspan86"
             y="0"
             x="0">τ</tspan></text>
<text
           id="text92"
           style="font-variant:normal;font-size:8.5195303px;font-family:f-1;-inkscape-font-specification:f-1-0;writing-mode:lr-tb;fill:#000000;fill-opacity:1;fill-rule:nonzero;stroke:none"
           transform="matrix(1,0,0,-1,97.63593,0.55586)"><tspan
             id="tspan90"
             y="0"
             x="0">3</tspan></text>
</g><path
         id="path94"
         style="fill:none;stroke:#000000;stroke-width:5;stroke-linecap:butt;stroke-linejoin:miter;stroke-miterlimit:3.25;stroke-dasharray:none;stroke-opacity:1"
         d="M 618.48,169.922 V 198.75" /><g
         transform="scale(10)"
         id="g96"><text
           id="text100"
           style="font-variant:normal;font-size:12px;font-family:f-0;-inkscape-font-specification:f-0-1;writing-mode:lr-tb;fill:#000000;fill-opacity:1;fill-rule:nonzero;stroke:none"
           transform="matrix(1,0,0,-1,56.5613,2.55586)"><tspan
             id="tspan98"
             y="0"
             x="0">τ</tspan></text>
<text
           id="text104"
           style="font-variant:normal;font-size:8.5195303px;font-family:f-1;-inkscape-font-specification:f-1-0;writing-mode:lr-tb;fill:#000000;fill-opacity:1;fill-rule:nonzero;stroke:none"
           transform="matrix(1,0,0,-1,61.89333,0.55586)"><tspan
             id="tspan102"
             y="0"
             x="0">4</tspan></text>
</g><path
         id="path106"
         style="fill:none;stroke:#000000;stroke-width:5;stroke-linecap:butt;stroke-linejoin:miter;stroke-miterlimit:3.25;stroke-dasharray:none;stroke-opacity:1"
         d="M 166.41,169.922 H 2793.16" /><path
         id="path108"
         style="fill:#000000;fill-opacity:1;fill-rule:nonzero;stroke:none"
         d="m 2785.66,191.25 1.22,-2.418 2.57,-5.82 1.37,-3.481 1.21,-3.551 0.82,-3.281 0.31,-2.777 -0.31,-2.5 -0.82,-3.242 -1.21,-3.629 -1.37,-3.711 -2.57,-6.371 -1.22,-2.699 81.02,22.152 z" /><path
         id="path110"
         style="fill:none;stroke:#000000;stroke-width:0.30000001;stroke-linecap:square;stroke-linejoin:miter;stroke-miterlimit:3.25;stroke-dasharray:none;stroke-opacity:1"
         d="m 2785.66,191.25 1.22,-2.418 2.57,-5.82 1.37,-3.481 1.21,-3.551 0.82,-3.281 0.31,-2.777 -0.31,-2.5 -0.82,-3.242 -1.21,-3.629 -1.37,-3.711 -2.57,-6.371 -1.22,-2.699 81.02,22.152 z" /><g
         transform="scale(10)"
         id="g112"><text
           id="text116"
           style="font-variant:normal;font-size:12px;font-family:f-0;-inkscape-font-specification:f-0-1;writing-mode:lr-tb;fill:#000000;fill-opacity:1;fill-rule:nonzero;stroke:none"
           transform="matrix(1,0,0,-1,294.668,12.9855)"><tspan
             id="tspan114"
             y="0"
             x="0">τ</tspan></text>
</g><path
         id="path118"
         style="fill:none;stroke:#000000;stroke-width:5;stroke-linecap:butt;stroke-linejoin:miter;stroke-miterlimit:3.25;stroke-dasharray:none;stroke-opacity:1"
         d="m 166.41,914.84 h 28.82" /><g
         transform="scale(10)"
         id="g120"><text
           id="text124"
           style="font-variant:normal;font-size:12px;font-family:f-0;-inkscape-font-specification:f-0-1;writing-mode:lr-tb;fill:#000000;fill-opacity:1;fill-rule:nonzero;stroke:none"
           transform="matrix(1,0,0,-1,1.41406,87.4785)"><tspan
             id="tspan122"
             y="0"
             x="0">ρ</tspan></text>
<text
           id="text128"
           style="font-variant:normal;font-size:8.5195303px;font-family:f-1;-inkscape-font-specification:f-1-0;writing-mode:lr-tb;fill:#000000;fill-opacity:1;fill-rule:nonzero;stroke:none"
           transform="matrix(1,0,0,-1,8.40429,85.4785)"><tspan
             id="tspan126"
             y="0"
             x="0">0</tspan></text>
</g><path
         id="path130"
         style="fill:none;stroke:#000000;stroke-width:5;stroke-linecap:butt;stroke-linejoin:miter;stroke-miterlimit:3.25;stroke-dasharray:none;stroke-opacity:1"
         d="m 166.41,559.102 h 28.82" /><g
         transform="scale(10)"
         id="g132"><text
           id="text136"
           style="font-variant:normal;font-size:12px;font-family:f-0;-inkscape-font-specification:f-0-1;writing-mode:lr-tb;fill:#000000;fill-opacity:1;fill-rule:nonzero;stroke:none"
           transform="matrix(1,0,0,-1,0,51.9012)"><tspan
             id="tspan134"
             y="0"
             x="0">ρ</tspan></text>
<text
           id="text140"
           style="font-variant:normal;font-size:8.5195303px;font-family:f-2;-inkscape-font-specification:f-2-0;writing-mode:lr-tb;fill:#000000;fill-opacity:1;fill-rule:nonzero;stroke:none"
           transform="matrix(1,0,0,-1,6.99023,49.9012)"><tspan
             id="tspan138"
             y="0"
             x="0">R</tspan></text>
</g><path
         id="path142"
         style="fill:none;stroke:#000000;stroke-width:5;stroke-linecap:butt;stroke-linejoin:miter;stroke-miterlimit:3.25;stroke-dasharray:none;stroke-opacity:1"
         d="M 166.41,169.922 V 1446.52" /><path
         id="path144"
         style="fill:#000000;fill-opacity:1;fill-rule:nonzero;stroke:none"
         d="m 145.121,1439.06 2.418,1.17 5.781,2.62 3.52,1.37 3.512,1.21 3.277,0.82 2.781,0.27 2.5,-0.27 3.238,-0.82 3.672,-1.21 3.711,-1.37 6.367,-2.62 2.692,-1.17 -22.18,81.02 z" /><path
         id="path146"
         style="fill:none;stroke:#000000;stroke-width:0.30000001;stroke-linecap:square;stroke-linejoin:miter;stroke-miterlimit:3.25;stroke-dasharray:none;stroke-opacity:1"
         d="m 145.121,1439.06 2.418,1.17 5.781,2.62 3.52,1.37 3.512,1.21 3.277,0.82 2.781,0.27 2.5,-0.27 3.238,-0.82 3.672,-1.21 3.711,-1.37 6.367,-2.62 2.692,-1.17 -22.18,81.02 z" /><g
         transform="scale(10)"
         id="g148"><text
           id="text152"
           style="font-variant:normal;font-size:12px;font-family:f-0;-inkscape-font-specification:f-0-1;writing-mode:lr-tb;fill:#000000;fill-opacity:1;fill-rule:nonzero;stroke:none"
           transform="matrix(1,0,0,-1,13.1418,161.429)"><tspan
             id="tspan150"
             y="0"
             x="0">ρ</tspan></text>
</g></g></g></svg>