<?xml version="1.0" encoding="UTF-8" standalone="no"?>
<!-- Created with Inkscape (http://www.inkscape.org/) -->

<svg
   xmlns:dc="http://purl.org/dc/elements/1.1/"
   xmlns:cc="http://creativecommons.org/ns#"
   xmlns:rdf="http://www.w3.org/1999/02/22-rdf-syntax-ns#"
   xmlns:svg="http://www.w3.org/2000/svg"
   xmlns="http://www.w3.org/2000/svg"
   xmlns:sodipodi="http://sodipodi.sourceforge.net/DTD/sodipodi-0.dtd"
   xmlns:inkscape="http://www.inkscape.org/namespaces/inkscape"
   width="98.094856mm"
   height="39.113121mm"
   viewBox="0 0 98.09485 39.113121"
   version="1.1"
   id="svg863"
   inkscape:version="0.92.2 5c3e80d, 2017-08-06"
   sodipodi:docname="drawing.svg">
  <defs
     id="defs857">
    <marker
       inkscape:stockid="Arrow1Lend"
       orient="auto"
       refY="0"
       refX="0"
       id="Arrow1Lend"
       style="overflow:visible"
       inkscape:isstock="true">
      <path
         id="path1575"
         d="M 0,0 5,-5 -12.5,0 5,5 Z"
         style="fill:#000000;fill-opacity:1;fill-rule:evenodd;stroke:#000000;stroke-width:1.00000003pt;stroke-opacity:1"
         transform="matrix(-0.8,0,0,-0.8,-10,0)"
         inkscape:connector-curvature="0" />
    </marker>
    <marker
       inkscape:stockid="Arrow1Lstart"
       orient="auto"
       refY="0"
       refX="0"
       id="Arrow1Lstart"
       style="overflow:visible"
       inkscape:isstock="true">
      <path
         id="path1572"
         d="M 0,0 5,-5 -12.5,0 5,5 Z"
         style="fill:#000000;fill-opacity:1;fill-rule:evenodd;stroke:#000000;stroke-width:1.00000003pt;stroke-opacity:1"
         transform="matrix(0.8,0,0,0.8,10,0)"
         inkscape:connector-curvature="0" />
    </marker>
  </defs>
  <sodipodi:namedview
     id="base"
     pagecolor="#ffffff"
     bordercolor="#666666"
     borderopacity="1.0"
     inkscape:pageopacity="0.0"
     inkscape:pageshadow="2"
     inkscape:zoom="3.0028985"
     inkscape:cx="238.861"
     inkscape:cy="85.675676"
     inkscape:document-units="mm"
     inkscape:current-layer="layer1"
     showgrid="false"
     inkscape:window-width="1440"
     inkscape:window-height="805"
     inkscape:window-x="0"
     inkscape:window-y="1"
     inkscape:window-maximized="1"
     scale-x="0.30001" />
  <metadata
     id="metadata860">
    <rdf:RDF>
      <cc:Work
         rdf:about="">
        <dc:format>image/svg+xml</dc:format>
        <dc:type
           rdf:resource="http://purl.org/dc/dcmitype/StillImage" />
        <dc:title></dc:title>
      </cc:Work>
    </rdf:RDF>
  </metadata>
  <g
     inkscape:label="Layer 1"
     inkscape:groupmode="layer"
     id="layer1"
     transform="translate(-10.030916,-152.48963)">
    <g
       id="g2892"
       transform="matrix(1.199322,0,0,1.2782178,-2.147092,-53.135153)">
      <path
         inkscape:connector-curvature="0"
         id="path1412"
         d="m 11.017831,175.34747 c 3.517473,0.27779 6.094345,-5.06853 9.653661,-4.83131 2.623943,-0.11019 5.365359,-0.71269 7.910046,0.52646 4.595084,3.254 8.436223,10.26467 13.797126,9.8882 3.850883,-0.39286 7.078386,-4.78106 10.893333,-5.34657 2.283079,1.65993 4.535257,3.92109 7.328944,2.75889 3.366146,-0.68689 6.374154,-4.78725 9.897368,-3.87898 2.676868,1.96821 5.280084,4.19019 8.226779,4.93171 4.211851,1.26872 7.778171,-5.24614 12.028309,-3.24278 0.161114,0.008 0.32222,0.0174 0.48334,0.0248"
         style="fill:none;stroke:#009dd2;stroke-width:0.49096608;stroke-linecap:butt;stroke-linejoin:miter;stroke-miterlimit:4;stroke-dasharray:none;stroke-opacity:1" />
      <path
         inkscape:connector-curvature="0"
         id="path1450"
         d="M 11.00503,190.26461 H 91.4332 Z"
         style="fill:none;stroke:#a78d41;stroke-width:0.84585983;stroke-linecap:butt;stroke-linejoin:miter;stroke-miterlimit:4;stroke-dasharray:none;stroke-opacity:1" />
      <path
         style="fill:none;stroke:none;stroke-width:0.13426246;stroke-linecap:butt;stroke-linejoin:miter;stroke-miterlimit:4;stroke-dasharray:0.80557466, 0.80557466;stroke-dashoffset:0;stroke-opacity:1"
         d="m 11.061439,154.86296 v 35.98615 z"
         id="path1523"
         inkscape:connector-curvature="0" />
      <path
         inkscape:connector-curvature="0"
         id="path2117"
         d="M 20.710709,188.87412 Z"
         style="fill:none;fill-opacity:1;stroke:#a78d41;stroke-width:0.31040278px;stroke-linecap:butt;stroke-linejoin:miter;stroke-opacity:1" />
      <path
         sodipodi:nodetypes="ccc"
         inkscape:connector-curvature="0"
         id="path2119"
         d="m 21.264513,170.51174 9.2e-5,19.17907 z"
         style="fill:none;fill-opacity:1;stroke:#000000;stroke-width:0.14926538;stroke-linecap:butt;stroke-linejoin:miter;stroke-miterlimit:4;stroke-dasharray:none;stroke-opacity:1;marker-start:url(#Arrow1Lstart)" />
      <text
         transform="scale(0.76004667,1.3157087)"
         id="text2153"
         y="141.40282"
         x="23.91831"
         style="font-style:normal;font-weight:normal;font-size:1.1092571px;line-height:1.25;font-family:sans-serif;letter-spacing:0px;word-spacing:0px;fill:#000000;fill-opacity:1;stroke:none;stroke-width:0.10399284"
         xml:space="preserve"><tspan
           style="stroke-width:0.10399284"
           y="142.38425"
           x="23.91831"
           id="tspan2151"
           sodipodi:role="line" /></text>
      <rect
         y="168.35367"
         x="11.746838"
         height="22.4401"
         width="79.686363"
         id="rect2581"
         style="fill:none;fill-opacity:1;stroke:none;stroke-width:0.41689619;stroke-miterlimit:4;stroke-dasharray:none;stroke-dashoffset:0.34354624;stroke-opacity:1" />
      <rect
         y="161.56944"
         x="11.00503"
         height="29.224339"
         width="80.428162"
         id="rect2748"
         style="fill:none;fill-opacity:1;stroke:#000005;stroke-width:0.41689619;stroke-miterlimit:4;stroke-dasharray:none;stroke-dashoffset:0.34354624;stroke-opacity:1" />
      <path
         transform="matrix(0.26458333,0,0,0.26458333,10.030916,160.48963)"
         inkscape:connector-curvature="0"
         id="path2838"
         d="m 43.130904,78.507458 c 0,-28.345899 0.128806,-32.169851 1.071428,-31.808133 1.333868,0.511854 1.353645,-0.522099 0.09028,-4.719939 l -0.981148,-3.260107 6.516862,-0.254005 c 9.010166,-0.351185 14.696989,0.343136 18.706014,2.283872 2.312216,1.119325 8.296194,6.420516 18.582832,16.462486 14.003238,13.670171 15.654758,15.050543 21.432068,17.913314 5.77033,2.859308 6.68268,3.098514 11.67067,3.0599 7.21201,-0.05583 11.2416,-1.720016 22.66585,-9.360794 9.45377,-6.322871 16.74787,-10.238624 19.07394,-10.23961 0.73083,-3.1e-4 3.50255,1.580502 6.15938,3.512916 10.05782,7.315438 15.29704,8.903717 22.51182,6.8245 5.17275,-1.490726 9.47563,-3.607483 17.10539,-8.414798 7.34688,-4.629083 12.79888,-6.88482 16.69199,-6.906228 2.71934,-0.01495 3.8992,0.589035 10,5.119118 11.33585,8.417305 18.96272,12.527146 26.29798,14.171013 5.03855,1.129162 10.5688,-0.616193 20.26179,-6.39464 4.51785,-2.69331 9.4589,-5.414704 10.98008,-6.047543 3.26875,-1.359849 9.03364,-1.496411 12.36206,-0.292839 l 2.37214,0.857778 V 85.870227 110.72674 H 174.91662 43.130904 Z"
         style="fill:#e1ffff;fill-opacity:1;stroke:none;stroke-width:1.1689539;stroke-miterlimit:4;stroke-dasharray:none;stroke-dashoffset:0.34354624;stroke-opacity:1" />
      <path
         transform="matrix(0.26458333,0,0,0.26458333,10.030916,160.48963)"
         inkscape:connector-curvature="0"
         id="path2840"
         d="M 4.5594751,83.941021 V 57.155307 h 2.0026112 c 3.0869203,0 8.3824997,-2.993634 16.2116747,-9.164591 8.364442,-6.592855 12.174942,-8.692552 15.775116,-8.692552 2.891735,0 2.769827,-0.632353 1.206886,6.260291 -0.288247,1.271185 -0.11915,1.522416 0.789904,1.173579 1.055495,-0.405032 1.156665,2.374283 1.156665,31.775424 V 110.72674 H 23.130904 4.5594751 Z"
         style="fill:#e1ffff;fill-opacity:1;stroke:none;stroke-width:1.1689539;stroke-miterlimit:4;stroke-dasharray:none;stroke-dashoffset:0.34354624;stroke-opacity:1" />
      <path
         transform="matrix(0.26458333,0,0,0.26458333,10.030916,160.48963)"
         inkscape:connector-curvature="0"
         id="path2842"
         d="M 4.5594751,83.941021 V 57.155307 H 6.730788 c 3.0605731,0 7.04528,-2.180934 15.68583,-8.585263 9.245752,-6.852902 11.736414,-8.313295 15.283756,-8.961588 l 2.783756,-0.508745 -0.50179,3.782682 c -0.357853,2.69763 -0.248281,3.939359 0.381987,4.328887 0.672509,0.415633 0.960513,8.072653 1.204779,32.03083 l 0.321001,31.48463 H 23.224792 4.5594751 Z"
         style="fill:#e1ffff;fill-opacity:1;stroke:none;stroke-width:1.1689539;stroke-miterlimit:4;stroke-dasharray:none;stroke-dashoffset:0.34354624;stroke-opacity:1" />
      <path
         transform="matrix(0.26458333,0,0,0.26458333,10.030916,160.48963)"
         inkscape:connector-curvature="0"
         id="path2844"
         d="m 43.26494,79.162665 c 0.238434,-23.386159 0.540355,-31.636918 1.165316,-31.845238 1.041906,-0.347302 1.089934,-2.992392 0.101537,-5.592072 -0.558453,-1.468843 -0.514286,-2.108645 0.178572,-2.586789 1.287053,-0.888199 18.202537,-0.149052 21.465184,0.937953 3.149783,1.049402 7.400366,4.663371 24.287832,20.650216 10.329969,9.779063 13.410729,12.272175 18.094309,14.642858 5.28587,2.675545 6.03054,2.855861 11.71607,2.836987 7.22631,-0.02399 10.93877,-1.52401 23.32764,-9.425537 11.19035,-7.137125 12.57919,-7.933596 15.8406,-9.084291 l 2.94006,-1.037312 6.59134,4.371839 c 10.09253,6.694072 14.84766,8.053642 21.6575,6.192227 3.47138,-0.948872 11.87964,-5.115228 18.49615,-9.16498 6.29237,-3.851354 11.46605,-5.875859 15.16983,-5.936087 2.53425,-0.04121 3.94395,0.649671 9.96806,4.885292 15.56308,10.942564 22.17049,14.101391 29.58025,14.141526 5.0359,0.02728 7.38891,-0.940468 23.08366,-9.493834 6.35866,-3.465356 7.42386,-3.819847 11.42858,-3.803326 2.42898,0.01002 5.30026,0.363673 6.38062,0.785893 l 1.96428,0.767673 V 86.066199 110.72674 H 174.82273 42.943128 Z"
         style="fill:#e1ffff;fill-opacity:1;stroke:none;stroke-width:1.1689539;stroke-miterlimit:4;stroke-dasharray:none;stroke-dashoffset:0.34354624;stroke-opacity:1" />
      <path
         transform="matrix(0.26458333,0,0,0.26458333,10.030916,160.48963)"
         inkscape:connector-curvature="0"
         id="path2846"
         d="m 39.139518,39.60432 c -5.788549,0.260303 -10.261578,4.557603 -14.789096,7.651461 -5.177201,3.601565 -10.060801,8.120966 -16.2408189,9.906444 -1.3177548,0.560298 -4.0185651,-0.37643 -3.4224745,1.786686 0,17.16419 0,34.328376 0,51.492569 12.3027834,0 24.6055664,0 36.9083504,0 -0.232672,-20.684202 -0.08706,-41.382507 -0.684089,-62.056989 0.01179,-0.731298 -0.230051,-1.336552 -0.979018,-1.327086 -0.962976,-1.814917 0.296241,-4.042394 0.465028,-5.943673 0.359928,-1.005739 -0.15215,-1.768768 -1.257882,-1.509412 z"
         style="fill:#e1ffff;fill-opacity:1;stroke:none;stroke-width:0.54498523;stroke-miterlimit:4;stroke-dasharray:none;stroke-dashoffset:0.34354624;stroke-opacity:1" />
      <text
         id="text2874"
         y="185.34799"
         x="21.572212"
         style="font-style:normal;font-weight:normal;font-size:2.82222223px;line-height:1.25;font-family:sans-serif;letter-spacing:0px;word-spacing:0px;fill:#000000;fill-opacity:1;stroke:none;stroke-width:0.26458332"
         xml:space="preserve"><tspan
           style="stroke-width:0.26458332"
           y="185.34799"
           x="21.572212"
           id="tspan2872"
           sodipodi:role="line">h(x,t)</tspan></text>
    </g>
  </g>
</svg>
