<?xml version="1.0" encoding="UTF-8" standalone="no"?>
<!-- Generator: Adobe Illustrator 16.0.0, SVG Export Plug-In . SVG Version: 6.00 Build 0)  -->

<svg
   xmlns:dc="http://purl.org/dc/elements/1.1/"
   xmlns:cc="http://creativecommons.org/ns#"
   xmlns:rdf="http://www.w3.org/1999/02/22-rdf-syntax-ns#"
   xmlns:svg="http://www.w3.org/2000/svg"
   xmlns="http://www.w3.org/2000/svg"
   xmlns:sodipodi="http://sodipodi.sourceforge.net/DTD/sodipodi-0.dtd"
   xmlns:inkscape="http://www.inkscape.org/namespaces/inkscape"
   version="1.1"
   id="Capa_1"
   x="0px"
   y="0px"
   width="166.21907"
   height="239.10732"
   viewBox="0 0 166.21907 239.10744"
   xml:space="preserve"
   sodipodi:docname="tennis.svg"
   inkscape:version="0.92.2 5c3e80d, 2017-08-06"><metadata
     id="metadata3972"><rdf:RDF><cc:Work
         rdf:about=""><dc:format>image/svg+xml</dc:format><dc:type
           rdf:resource="http://purl.org/dc/dcmitype/StillImage" /><dc:title></dc:title></cc:Work></rdf:RDF></metadata><defs
     id="defs3970"><marker
       inkscape:stockid="Arrow1Mstart"
       orient="auto"
       refY="0"
       refX="0"
       id="marker3559"
       style="overflow:visible"
       inkscape:isstock="true"><path
         id="path3173"
         d="M 0,0 5,-5 -12.5,0 5,5 Z"
         style="fill:#000000;fill-opacity:1;fill-rule:evenodd;stroke:#000000;stroke-width:1.00000003pt;stroke-opacity:1"
         transform="matrix(0.4,0,0,0.4,4,0)"
         inkscape:connector-curvature="0" /></marker><marker
       inkscape:stockid="Arrow2Lstart"
       orient="auto"
       refY="0"
       refX="0"
       id="marker3430"
       style="overflow:visible"
       inkscape:isstock="true"><path
         id="path3185"
         style="fill:#000000;fill-opacity:1;fill-rule:evenodd;stroke:#000000;stroke-width:0.625;stroke-linejoin:round;stroke-opacity:1"
         d="M 8.7185878,4.0337352 -2.2072895,0.01601326 8.7185884,-4.0017078 c -1.7454984,2.3720609 -1.7354408,5.6174519 -6e-7,8.035443 z"
         transform="matrix(1.1,0,0,1.1,1.1,0)"
         inkscape:connector-curvature="0" /></marker><marker
       inkscape:stockid="Arrow2Lstart"
       orient="auto"
       refY="0"
       refX="0"
       id="marker5003"
       style="overflow:visible"
       inkscape:isstock="true"><path
         id="path5001"
         style="fill:#000000;fill-opacity:1;fill-rule:evenodd;stroke:#000000;stroke-width:0.625;stroke-linejoin:round;stroke-opacity:1"
         d="M 8.7185878,4.0337352 -2.2072895,0.01601326 8.7185884,-4.0017078 c -1.7454984,2.3720609 -1.7354408,5.6174519 -6e-7,8.035443 z"
         transform="matrix(1.1,0,0,1.1,1.1,0)"
         inkscape:connector-curvature="0" /></marker><marker
       inkscape:stockid="Arrow1Lstart"
       orient="auto"
       refY="0"
       refX="0"
       id="marker4891"
       style="overflow:visible"
       inkscape:isstock="true"><path
         id="path4331"
         d="M 0,0 5,-5 -12.5,0 5,5 Z"
         style="fill:#000000;fill-opacity:1;fill-rule:evenodd;stroke:#000000;stroke-width:1.00000003pt;stroke-opacity:1"
         transform="matrix(0.8,0,0,0.8,10,0)"
         inkscape:connector-curvature="0" /></marker><marker
       inkscape:stockid="Arrow1Mstart"
       orient="auto"
       refY="0"
       refX="0"
       id="Arrow1Mstart"
       style="overflow:visible"
       inkscape:isstock="true"><path
         id="path4337"
         d="M 0,0 5,-5 -12.5,0 5,5 Z"
         style="fill:#000000;fill-opacity:1;fill-rule:evenodd;stroke:#000000;stroke-width:1.00000003pt;stroke-opacity:1"
         transform="matrix(0.4,0,0,0.4,4,0)"
         inkscape:connector-curvature="0" /></marker><marker
       inkscape:stockid="Arrow2Lstart"
       orient="auto"
       refY="0"
       refX="0"
       id="marker4688"
       style="overflow:visible"
       inkscape:isstock="true"><path
         id="path4686"
         style="fill:#000000;fill-opacity:1;fill-rule:evenodd;stroke:#000000;stroke-width:0.625;stroke-linejoin:round;stroke-opacity:1"
         d="M 8.7185878,4.0337352 -2.2072895,0.01601326 8.7185884,-4.0017078 c -1.7454984,2.3720609 -1.7354408,5.6174519 -6e-7,8.035443 z"
         transform="matrix(1.1,0,0,1.1,1.1,0)"
         inkscape:connector-curvature="0" /></marker><marker
       inkscape:stockid="Arrow2Lstart"
       orient="auto"
       refY="0"
       refX="0"
       id="marker4594"
       style="overflow:visible"
       inkscape:isstock="true"><path
         id="path4349"
         style="fill:#000000;fill-opacity:1;fill-rule:evenodd;stroke:#000000;stroke-width:0.625;stroke-linejoin:round;stroke-opacity:1"
         d="M 8.7185878,4.0337352 -2.2072895,0.01601326 8.7185884,-4.0017078 c -1.7454984,2.3720609 -1.7354408,5.6174519 -6e-7,8.035443 z"
         transform="matrix(1.1,0,0,1.1,1.1,0)"
         inkscape:connector-curvature="0" /></marker><marker
       inkscape:stockid="Arrow1Mend"
       orient="auto"
       refY="0"
       refX="0"
       id="marker6256"
       style="overflow:visible"
       inkscape:isstock="true"><path
         id="path6254"
         d="M 0,0 5,-5 -12.5,0 5,5 Z"
         style="fill:#000000;fill-opacity:1;fill-rule:evenodd;stroke:#000000;stroke-width:1.00000003pt;stroke-opacity:1"
         transform="matrix(-0.4,0,0,-0.4,-4,0)"
         inkscape:connector-curvature="0" /></marker><marker
       inkscape:stockid="Arrow2Lend"
       orient="auto"
       refY="0"
       refX="0"
       id="marker6180"
       style="overflow:visible"
       inkscape:isstock="true"><path
         id="path6178"
         style="fill:#000000;fill-opacity:1;fill-rule:evenodd;stroke:#000000;stroke-width:0.625;stroke-linejoin:round;stroke-opacity:1"
         d="M 8.7185878,4.0337352 -2.2072895,0.01601326 8.7185884,-4.0017078 c -1.7454984,2.3720609 -1.7354408,5.6174519 -6e-7,8.035443 z"
         transform="matrix(-1.1,0,0,-1.1,-1.1,0)"
         inkscape:connector-curvature="0" /></marker><marker
       inkscape:stockid="Arrow2Lend"
       orient="auto"
       refY="0"
       refX="0"
       id="marker6110"
       style="overflow:visible"
       inkscape:isstock="true"><path
         id="path6108"
         style="fill:#000000;fill-opacity:1;fill-rule:evenodd;stroke:#000000;stroke-width:0.625;stroke-linejoin:round;stroke-opacity:1"
         d="M 8.7185878,4.0337352 -2.2072895,0.01601326 8.7185884,-4.0017078 c -1.7454984,2.3720609 -1.7354408,5.6174519 -6e-7,8.035443 z"
         transform="matrix(-1.1,0,0,-1.1,-1.1,0)"
         inkscape:connector-curvature="0" /></marker><marker
       inkscape:stockid="Arrow2Lend"
       orient="auto"
       refY="0"
       refX="0"
       id="marker5818"
       style="overflow:visible"
       inkscape:isstock="true"><path
         id="path5816"
         style="fill:#000000;fill-opacity:1;fill-rule:evenodd;stroke:#000000;stroke-width:0.625;stroke-linejoin:round;stroke-opacity:1"
         d="M 8.7185878,4.0337352 -2.2072895,0.01601326 8.7185884,-4.0017078 c -1.7454984,2.3720609 -1.7354408,5.6174519 -6e-7,8.035443 z"
         transform="matrix(-1.1,0,0,-1.1,-1.1,0)"
         inkscape:connector-curvature="0" /></marker><marker
       inkscape:stockid="Arrow1Mend"
       orient="auto"
       refY="0"
       refX="0"
       id="Arrow1Mend"
       style="overflow:visible"
       inkscape:isstock="true"><path
         id="path5107"
         d="M 0,0 5,-5 -12.5,0 5,5 Z"
         style="fill:#000000;fill-opacity:1;fill-rule:evenodd;stroke:#000000;stroke-width:1.00000003pt;stroke-opacity:1"
         transform="matrix(-0.4,0,0,-0.4,-4,0)"
         inkscape:connector-curvature="0" /></marker><marker
       inkscape:stockid="Arrow2Mend"
       orient="auto"
       refY="0"
       refX="0"
       id="Arrow2Mend"
       style="overflow:visible"
       inkscape:isstock="true"><path
         id="path5125"
         style="fill:#000000;fill-opacity:1;fill-rule:evenodd;stroke:#000000;stroke-width:0.625;stroke-linejoin:round;stroke-opacity:1"
         d="M 8.7185878,4.0337352 -2.2072895,0.01601326 8.7185884,-4.0017078 c -1.7454984,2.3720609 -1.7354408,5.6174519 -6e-7,8.035443 z"
         transform="scale(-0.6)"
         inkscape:connector-curvature="0" /></marker><marker
       inkscape:stockid="Arrow2Lend"
       orient="auto"
       refY="0"
       refX="0"
       id="marker5666"
       style="overflow:visible"
       inkscape:isstock="true"><path
         id="path5664"
         style="fill:#000000;fill-opacity:1;fill-rule:evenodd;stroke:#000000;stroke-width:0.625;stroke-linejoin:round;stroke-opacity:1"
         d="M 8.7185878,4.0337352 -2.2072895,0.01601326 8.7185884,-4.0017078 c -1.7454984,2.3720609 -1.7354408,5.6174519 -6e-7,8.035443 z"
         transform="matrix(-1.1,0,0,-1.1,-1.1,0)"
         inkscape:connector-curvature="0" /></marker><marker
       inkscape:stockid="Arrow2Lend"
       orient="auto"
       refY="0"
       refX="0"
       id="Arrow2Lend"
       style="overflow:visible"
       inkscape:isstock="true"><path
         id="path5119"
         style="fill:#000000;fill-opacity:1;fill-rule:evenodd;stroke:#000000;stroke-width:0.625;stroke-linejoin:round;stroke-opacity:1"
         d="M 8.7185878,4.0337352 -2.2072895,0.01601326 8.7185884,-4.0017078 c -1.7454984,2.3720609 -1.7354408,5.6174519 -6e-7,8.035443 z"
         transform="matrix(-1.1,0,0,-1.1,-1.1,0)"
         inkscape:connector-curvature="0" /></marker><marker
       inkscape:stockid="Arrow2Lstart"
       orient="auto"
       refY="0"
       refX="0"
       id="Arrow2Lstart"
       style="overflow:visible"
       inkscape:isstock="true"><path
         id="path5116"
         style="fill:#000000;fill-opacity:1;fill-rule:evenodd;stroke:#000000;stroke-width:0.625;stroke-linejoin:round;stroke-opacity:1"
         d="M 8.7185878,4.0337352 -2.2072895,0.01601326 8.7185884,-4.0017078 c -1.7454984,2.3720609 -1.7354408,5.6174519 -6e-7,8.035443 z"
         transform="matrix(1.1,0,0,1.1,1.1,0)"
         inkscape:connector-curvature="0" /></marker><marker
       inkscape:stockid="Arrow1Lstart"
       orient="auto"
       refY="0"
       refX="0"
       id="Arrow1Lstart"
       style="overflow:visible"
       inkscape:isstock="true"><path
         id="path5098"
         d="M 0,0 5,-5 -12.5,0 5,5 Z"
         style="fill:#000000;fill-opacity:1;fill-rule:evenodd;stroke:#000000;stroke-width:1.00000003pt;stroke-opacity:1"
         transform="matrix(0.8,0,0,0.8,10,0)"
         inkscape:connector-curvature="0" /></marker><marker
       inkscape:stockid="Arrow1Lend"
       orient="auto"
       refY="0"
       refX="0"
       id="Arrow1Lend"
       style="overflow:visible"
       inkscape:isstock="true"><path
         id="path5101"
         d="M 0,0 5,-5 -12.5,0 5,5 Z"
         style="fill:#000000;fill-opacity:1;fill-rule:evenodd;stroke:#000000;stroke-width:1.00000003pt;stroke-opacity:1"
         transform="matrix(-0.8,0,0,-0.8,-10,0)"
         inkscape:connector-curvature="0" /></marker><marker
       inkscape:stockid="Arrow1Mend"
       orient="auto"
       refY="0"
       refX="0"
       id="marker6256-3"
       style="overflow:visible"
       inkscape:isstock="true"><path
         inkscape:connector-curvature="0"
         id="path6254-6"
         d="M 0,0 5,-5 -12.5,0 5,5 Z"
         style="fill:#ff0000;fill-opacity:1;fill-rule:evenodd;stroke:#ff0000;stroke-width:1.00000003pt;stroke-opacity:1"
         transform="matrix(-0.4,0,0,-0.4,-4,0)" /></marker><marker
       inkscape:stockid="Arrow2Lstart"
       orient="auto"
       refY="0"
       refX="0"
       id="marker5003-1"
       style="overflow:visible"
       inkscape:isstock="true"><path
         inkscape:connector-curvature="0"
         id="path5001-2"
         style="fill:#ff0000;fill-opacity:1;fill-rule:evenodd;stroke:#ff0000;stroke-width:0.625;stroke-linejoin:round;stroke-opacity:1"
         d="M 8.7185878,4.0337352 -2.2072895,0.01601326 8.7185884,-4.0017078 c -1.7454984,2.3720609 -1.7354408,5.6174519 -6e-7,8.035443 z"
         transform="matrix(1.1,0,0,1.1,1.1,0)" /></marker></defs><sodipodi:namedview
     pagecolor="#ffffff"
     bordercolor="#666666"
     borderopacity="1"
     objecttolerance="10"
     gridtolerance="10"
     guidetolerance="10"
     inkscape:pageopacity="0"
     inkscape:pageshadow="2"
     inkscape:window-width="1360"
     inkscape:window-height="706"
     id="namedview3968"
     showgrid="false"
     showguides="false"
     inkscape:zoom="3.0713977"
     inkscape:cx="92.65003"
     inkscape:cy="97.769375"
     inkscape:window-x="0"
     inkscape:window-y="0"
     inkscape:window-maximized="0"
     inkscape:current-layer="Capa_1"
     inkscape:snap-nodes="false"
     scale-x="1" /><g
     id="g3935"
     transform="matrix(0.03857271,0,0,0.03096132,80.783124,134.48833)"><g
       id="g3933"><path
         d="m 122.711,135.041 c -168.3,175.1 -162.8,453.6 12.3,622 175.101,168.299 453.601,162.799 622,-12.301 86.601,-90.1 127.2,-207.5 122.4,-323.2 -41,23.1 -78.101,51.6 -110.7,85.299 -18.5,19.102 -35,39.701 -52.5,61.602 -17.2,21.5 -34.9,43.6 -54.8,64.299 -54.3,56.5 -127.3,88.4 -205.7,90 -2,0 -4,0.1 -6,0.1 -76.1,0 -148.1,-28.898 -203.1,-81.799 -56.5,-54.301 -88.4,-127.301 -90,-205.701 -1.6,-78.3 27.5,-152.6 81.8,-209.1 19.8,-20.6 41.3,-39.3 62.1,-57.3 21.101,-18.3 41.101,-35.6 59.5,-54.9 32.3,-33.9 59.4,-72.1 80.8,-114 -115.9,-0.299 -231.6,44.901 -318.1,135.001 z"
         id="path3929"
         inkscape:connector-curvature="0" /><path
         d="m 336.511,210.341 c -20.7,18 -40.3,35 -58.5,53.8 -44.1,45.9 -67.7,106.2 -66.5,169.9 1.3,63.6 27.2,123 73.101,167.1 45.899,44.1 106.199,67.699 169.899,66.5 63.601,-1.301 123,-27.199 167.101,-73.1 18.1,-18.801 34.3,-39.1 51.5,-60.5 17.5,-21.9 35.6,-44.5 55.899,-65.5 41.601,-43 90,-78.6 143.7,-105.9 -15.7,-88.4 -58.5,-172.8 -128.2,-239.8 -69.6,-67.1 -155.6,-106.6 -244.6,-118.8 -25.2,54.8 -58.8,104.5 -100.101,147.8 -20.199,21.1 -42.099,40.1 -63.299,58.5 z"
         id="path3931"
         inkscape:connector-curvature="0" /></g></g><g
     id="g3937"
     transform="matrix(0.32088623,0,0,0.27989878,-57.522014,-34.577674)" /><g
     id="g3939"
     transform="matrix(0.32088623,0,0,0.27989878,-57.522014,-34.577674)" /><g
     id="g3941"
     transform="matrix(0.32088623,0,0,0.27989878,-57.522014,-34.577674)" /><g
     id="g3943"
     transform="matrix(0.32088623,0,0,0.27989878,-57.522014,-34.577674)" /><g
     id="g3945"
     transform="matrix(0.32088623,0,0,0.27989878,-57.522014,-34.577674)" /><g
     id="g3947"
     transform="matrix(0.32088623,0,0,0.27989878,-57.522014,-34.577674)" /><g
     id="g3949"
     transform="matrix(0.32088623,0,0,0.27989878,-57.522014,-34.577674)" /><g
     id="g3951"
     transform="matrix(0.32088623,0,0,0.27989878,-57.522014,-34.577674)" /><g
     id="g3953"
     transform="matrix(0.32088623,0,0,0.27989878,-57.522014,-34.577674)" /><g
     id="g3955"
     transform="matrix(0.32088623,0,0,0.27989878,-57.522014,-34.577674)" /><g
     id="g3957"
     transform="matrix(0.32088623,0,0,0.27989878,-57.522014,-34.577674)" /><g
     id="g3959"
     transform="matrix(0.32088623,0,0,0.27989878,-57.522014,-34.577674)" /><g
     id="g3961"
     transform="matrix(0.32088623,0,0,0.27989878,-57.522014,-34.577674)" /><g
     id="g3963"
     transform="matrix(0.32088623,0,0,0.27989878,-57.522014,-34.577674)" /><g
     id="g3965"
     transform="matrix(0.32088623,0,0,0.27989878,-57.522014,-34.577674)" /><path
     style="fill:none;fill-opacity:1;stroke:#000000;stroke-width:0.88029951;stroke-miterlimit:4;stroke-dasharray:3.52119773, 3.52119773;stroke-dashoffset:0;stroke-opacity:1"
     d="M 98.0054,58.73507 A 16.631781,12.928063 0 0 0 81.373669,71.66311 16.631781,12.928063 0 0 0 98.0054,84.59152 16.631781,12.928063 0 0 0 114.63713,71.66311 16.631781,12.928063 0 0 0 98.0054,58.73507 Z"
     id="path4261"
     inkscape:connector-curvature="0" /><g
     id="g3025"
     transform="matrix(-0.11620221,0,0,0.09768972,106.13499,-4.9461644)"><path
       style="fill:#ffffff;stroke:none"
       d="M 718.67327,903.27537 567.69023,690.82067 c -76.71893,62.34025 -168.4922,36.86353 -256.67117,32.35351 -53.3133,12.70814 -85.01636,39.16826 -116.4726,65.78546 -41.18326,-26.48479 -26.47189,-52.02276 -8.62761,-75.49152 32.83669,-43.18671 82.35853,-58.12232 132.64938,-70.09925 16.65192,-8.34524 32.50782,-16.15981 43.13801,-20.49055 -11.75306,-19.61514 -14.39516,-36.19329 -14.01985,-51.76561 -38.21513,-26.35813 -54.70485,-44.02611 -62.55013,-58.23632 -19.05261,-14.60701 -38.10525,-27.28645 -57.15786,-39.90265 -26.64399,9.7695 -60.28339,18.13993 -97.06051,25.8828 -3.36613,25.16384 -2.65826,50.32767 -19.41212,75.4915 -1.15494,20.49056 -3.88854,43.90022 -31.275049,61.47167 -22.793799,14.62471 -43.463649,13.83007 -51.765608,-1.07844 11.639482,-26.3653 20.343781,-44.90349 25.882804,-55.00096 7.779662,-24.67538 8.313233,-42.69126 8.627602,-59.31477 1.097952,-58.05747 1.249745,-82.55014 56.079421,-95.98208 24.94619,-6.11122 44.41006,-12.22242 57.15785,-18.33364 -29.63169,-13.77848 -29.64002,-18.66996 -40.98111,-26.96126 -39.728054,6.60219 -57.512792,-10.9333 -77.648409,-25.8828 -36.719977,-8.70648 -103.37289,-21.20575 -96.720562,-86.23946 1.437539,-14.05348 3.624519,-11.99175 13.251447,-6.70793 22.9270371,12.58374 49.843246,28.37828 82.460926,39.39746 39.143433,3.05055 75.498368,6.37996 94.559848,11.43871 C 120.38843,266.76723 118.30074,253.427 110.71822,234.13401 91.209651,205.99205 84.169545,192.09978 78.689881,179.99087 54.285654,152.46768 68.168145,118.31315 84.027937,107.5458 c 9.405143,14.65677 18.810303,24.16662 28.215453,48.04251 l 32.02833,52.61799 c 14.58385,18.46126 28.61892,37.4713 41.17929,57.95604 6.86322,6.98978 13.72642,14.45352 20.58965,22.87738 -2.23368,-8.70928 -1.29414,-16.36081 0.76257,-23.63995 -3.46277,-11.28044 -8.87294,-20.61348 -8.38837,-35.84125 -16.90451,-26.4834 -10.44331,-54.01888 11.43869,-56.43087 8.2926,21.66907 15.23077,40.62924 22.11482,59.48119 7.00961,14.41822 8.73064,20.37472 22.11479,44.99219 5.73999,15.74806 10.62455,29.35752 19.06449,51.85542 15.25159,9.62707 30.50317,19.80613 45.75476,26.69028 69.49154,52.3567 128.1953,101.95743 215.04742,160.90426 14.08613,9.56031 56.28536,26.20172 88.64425,49.17515 56.0048,39.76101 106.38375,81.98851 161.48182,126.21813"
       id="path4226"
       inkscape:connector-curvature="0"
       sodipodi:nodetypes="ccccscccccccsccsscccssccccccccccccccccssc" /><path
       style="fill:#808080;stroke:none"
       d="m -38.976124,285.30186 c 6.486784,49.23686 63.576228,60.17475 96.552092,67.99349 20.135618,14.9495 37.940662,32.42504 77.668722,25.82285 11.31548,8.27258 11.3379,13.2498 40.7694,26.95718 l 20.68497,-5.33805 C 177.64645,384.16601 158.56774,382.57655 139.51513,373.78014 117.31868,362.8736 92.6922,355.18278 66.183584,350.02579 27.457886,322.94269 -5.8205816,303.92963 -38.909399,285.30186 h -0.06662 z"
       id="path4224"
       inkscape:connector-curvature="0" /><path
       style="fill:none;stroke:#000000;stroke-width:4.27044487;stroke-linecap:round;stroke-linejoin:round;stroke-miterlimit:4;stroke-dasharray:none;stroke-dashoffset:0;stroke-opacity:1"
       d="m 402.02359,591.78378 c -8.31067,11.65758 -18.22419,22.99461 -41.56059,31.64705 9.9899,-8.36297 19.15226,-16.65698 17.15803,-24.02126"
       id="path4228"
       inkscape:connector-curvature="0"
       sodipodi:nodetypes="ccc" /><path
       style="fill:#808080;stroke:none"
       d="m 572.03114,669.24156 c -58.82579,30.43939 -120.70635,50.21827 -202.77941,42.03719 -24.7653,-2.46862 -58.45644,-1.17751 -88.41156,-2.13522 -39.13707,14.46508 -71.27368,39.44635 -100.75581,68.39384 3.77507,3.78221 8.53156,7.58502 14.47948,11.4101 31.45624,-26.6172 63.12305,-53.08341 116.43635,-65.79155 88.17897,4.51002 179.97485,29.97829 256.69378,-32.36196 l 150.86681,212.25446 0.20007,-0.0666 7.40656,-23.75435 C 666.12516,802.31983 622.31377,738.34169 572.03103,669.24166 Z"
       id="path4230"
       inkscape:connector-curvature="0" /><path
       style="fill:none;stroke:#000000;stroke-width:4.27044487;stroke-linecap:round;stroke-linejoin:round;stroke-miterlimit:4;stroke-dasharray:none;stroke-dashoffset:0;stroke-opacity:1"
       d="m 567.88462,692.44427 6.48192,-26.30899"
       id="path4232"
       inkscape:connector-curvature="0" /><path
       style="fill:#808080;stroke:none"
       d="m 240.40439,456.25311 c -35.07145,10.94788 -72.94419,19.78924 -113.76732,26.42338 -8.79016,29.10097 -10.89817,51.50793 -28.625326,89.54589 0.162064,18.04652 -8.317973,40.34616 -15.747266,62.18836 25.468512,-17.40713 28.100512,-40.08763 29.225862,-60.05313 16.75385,-25.16384 16.05104,-50.36967 19.41718,-75.5335 36.77711,-7.74287 70.4419,-16.05335 97.08589,-25.82285 19.05262,12.6162 38.06459,25.29496 57.11721,39.90197 7.75064,14.03879 24.01595,31.41683 61.25419,57.25066 l 0.2669,-0.40036 -3.00265,-22.08621 c -22.50196,-20.67702 -34.40691,-35.32977 -47.17507,-50.44463 -28.48434,-15.8362 -39.44181,-27.77262 -56.0496,-40.96958 z"
       id="path4234"
       inkscape:connector-curvature="0" /><path
       style="fill:none;stroke:#000000;stroke-width:4.27044487;stroke-linecap:round;stroke-linejoin:round;stroke-miterlimit:4;stroke-dasharray:none;stroke-dashoffset:0;stroke-opacity:1"
       d="m 99.279532,572.33801 c 3.336418,1.2788 5.432458,3.4879 12.582568,1.90643"
       id="path4236"
       inkscape:connector-curvature="0"
       sodipodi:nodetypes="cc" /><path
       style="fill:none;stroke:#000000;stroke-width:4.27044487;stroke-linecap:round;stroke-linejoin:round;stroke-miterlimit:4;stroke-dasharray:none;stroke-dashoffset:0;stroke-opacity:1"
       d="m 122.29029,492.38584 c 1.90575,2.15689 2.79928,4.31381 8.08837,6.4707"
       id="path4238"
       inkscape:connector-curvature="0"
       sodipodi:nodetypes="cc" /><path
       style="fill:none;stroke:#000000;stroke-width:4.27044487;stroke-linecap:round;stroke-linejoin:round;stroke-miterlimit:4;stroke-dasharray:none;stroke-dashoffset:0;stroke-opacity:1"
       d="m 346.57863,570.06942 -1.74851,-25.56558"
       id="path4240"
       inkscape:connector-curvature="0"
       sodipodi:nodetypes="cc" /><path
       style="fill:#808080;fill-opacity:1;stroke:none"
       d="m 201.70349,250.80467 c 1.62033,4.93514 3.53144,9.59716 5.07115,14.61293 -2.05671,7.27914 -2.96766,14.91163 -0.73398,23.6209 -0.74161,-0.91025 -1.46035,-1.78058 -2.20195,-2.66903 l 0.93416,2.73575 29.69294,21.0186 c -5.70152,-10.60475 -12.53419,-21.22341 -11.34337,-31.82816 -7.77324,-9.82055 -14.64417,-18.66889 -21.41895,-27.49099 z"
       id="path4242"
       inkscape:connector-curvature="0" /><path
       style="fill:#808080;stroke:none"
       d="m 110.42272,233.58944 -0.0666,0.0666 c 0.11615,0.16783 0.21657,0.29822 0.33362,0.46708 7.58252,19.29299 9.68928,32.61416 40.43578,77.00146 4.29321,2.37334 75.8004,45.37348 75.8004,45.37348 -52.43229,-46.42435 -85.26428,-84.96181 -116.50308,-122.90875 z"
       id="path4244"
       inkscape:connector-curvature="0" /><path
       style="fill:none;stroke:#000000;stroke-width:4.27044487;stroke-linecap:round;stroke-linejoin:round;stroke-miterlimit:4;stroke-dasharray:none;stroke-dashoffset:0;stroke-opacity:1"
       d="m 174.77489,406.47695 20.58965,-5.33805"
       id="path4246"
       inkscape:connector-curvature="0" /><path
       style="fill:none;stroke:#000000;stroke-width:4.27044487;stroke-linecap:round;stroke-linejoin:round;stroke-miterlimit:4;stroke-dasharray:none;stroke-dashoffset:0;stroke-opacity:1"
       d="m 133.9769,378.64281 6.86322,-4.19419"
       id="path4248"
       inkscape:connector-curvature="0" /><path
       style="fill:none;stroke:#000000;stroke-width:4.27044487;stroke-linecap:round;stroke-linejoin:round;stroke-miterlimit:4;stroke-dasharray:none;stroke-dashoffset:0;stroke-opacity:1"
       d="m 58.862824,353.09639 8.007084,-2.28772"
       id="path4250"
       inkscape:connector-curvature="0" /><path
       style="fill:none;stroke:#000000;stroke-width:4.27044487;stroke-linecap:round;stroke-linejoin:round;stroke-miterlimit:4;stroke-dasharray:none;stroke-dashoffset:0;stroke-opacity:1"
       d="m 205.65937,289.42102 c 16.26837,13.21803 31.92758,22.81782 48.80508,39.65412 10.91144,10.88479 23.35474,20.11751 35.07865,30.1219 7.34073,6.2641 14.74322,12.45546 22.11482,18.6832"
       id="path4252"
       inkscape:connector-curvature="0"
       sodipodi:nodetypes="cssc" /><path
       style="fill:none;stroke:#000000;stroke-width:4.27044487;stroke-linecap:round;stroke-linejoin:round;stroke-miterlimit:4;stroke-dasharray:none;stroke-dashoffset:0;stroke-opacity:1"
       d="m 273.52893,329.07514 c -4.6803,-4.17193 -10.83552,-9.81876 -17.53931,-16.01417"
       id="path4254"
       inkscape:connector-curvature="0"
       sodipodi:nodetypes="cc" /><path
       style="fill:none;stroke:#000000;stroke-width:4.27044487;stroke-linecap:round;stroke-linejoin:round;stroke-miterlimit:4;stroke-dasharray:none;stroke-dashoffset:0;stroke-opacity:1"
       d="m 78.073826,180.1745 11.862955,7.54914"
       id="path4256"
       inkscape:connector-curvature="0" /><path
       style="fill:none;stroke:#000000;stroke-width:4.27044487;stroke-linecap:round;stroke-linejoin:round;stroke-miterlimit:4;stroke-dasharray:none;stroke-dashoffset:0;stroke-opacity:1"
       d="m 197.78181,229.78321 7.54914,3.23533"
       id="path4258"
       inkscape:connector-curvature="0" /><path
       style="fill:none;stroke:#000000;stroke-width:4.27044487;stroke-linecap:round;stroke-linejoin:round;stroke-miterlimit:4;stroke-dasharray:none;stroke-dashoffset:0;stroke-opacity:1"
       d="m 206.40941,265.37206 8.08837,6.4707"
       id="path4260"
       inkscape:connector-curvature="0" /><path
       style="fill:none;stroke:#000000;stroke-width:4.27044487;stroke-linecap:round;stroke-linejoin:round;stroke-miterlimit:4;stroke-dasharray:none;stroke-dashoffset:0;stroke-opacity:1"
       d="m 150.75364,310.39194 c 23.02144,12.59952 48.28951,27.44568 77.40182,46.13607"
       id="path4262"
       inkscape:connector-curvature="0"
       sodipodi:nodetypes="cc" /><path
       sodipodi:nodetypes="ccccscccccccsccsscccssccccccccccccccccssc"
       inkscape:connector-curvature="0"
       id="path3023"
       d="M 725.07975,903.27537 574.09671,690.82067 c -76.71893,62.34025 -168.4922,36.86353 -256.67117,32.35351 -53.3133,12.70814 -85.01636,39.16826 -116.4726,65.78546 -41.18326,-26.48479 -26.47189,-52.02276 -8.62761,-75.49152 32.83669,-43.18671 82.35853,-58.12232 132.64938,-70.09925 16.65192,-8.34524 32.50782,-16.15981 43.13801,-20.49055 -11.75306,-19.61514 -14.39516,-36.19329 -14.01985,-51.76561 -38.21513,-26.35813 -54.70485,-44.02611 -62.55013,-58.23632 -19.05261,-14.60701 -38.10525,-27.28645 -57.15786,-39.90265 -26.64399,9.7695 -60.28339,18.13993 -97.06051,25.8828 -3.36613,25.16384 -2.65826,50.32767 -19.41212,75.4915 -1.15494,20.49056 -3.88854,43.90022 -31.275049,61.47167 -22.793799,14.62471 -43.463649,13.83007 -51.765608,-1.07844 11.639482,-26.3653 20.343781,-44.90349 25.882804,-55.00096 7.779662,-24.67538 8.313233,-42.69126 8.627602,-59.31477 1.097952,-58.05747 1.249745,-82.55014 56.079421,-95.98208 24.94619,-6.11122 44.41006,-12.22242 57.15785,-18.33364 -29.63169,-13.77848 -29.64002,-18.66996 -40.98111,-26.96126 -39.72805,6.60219 -57.512792,-10.9333 -77.648409,-25.8828 -36.719977,-8.70648 -103.37289,-21.20575 -96.720562,-86.23946 1.437539,-14.05348 3.624519,-11.99175 13.251447,-6.70793 22.9270368,12.58374 49.843246,28.37828 82.460926,39.39746 39.143428,3.05055 75.498368,6.37996 94.559848,11.43871 C 126.79491,266.76723 124.70722,253.427 117.1247,234.13401 97.616131,205.99205 90.576025,192.09978 85.096361,179.99087 60.692134,152.46768 74.574625,118.31315 90.434417,107.5458 c 9.405143,14.65677 18.810303,24.16662 28.215453,48.04251 l 32.02833,52.61799 c 14.58385,18.46126 28.61892,37.4713 41.17929,57.95604 6.86322,6.98978 13.72642,14.45352 20.58965,22.87738 -2.23368,-8.70928 -1.29414,-16.36081 0.76257,-23.63995 -3.46277,-11.28044 -8.87294,-20.61348 -8.38837,-35.84125 -16.90451,-26.4834 -10.44331,-54.01888 11.43869,-56.43087 8.2926,21.66907 15.23077,40.62924 22.11482,59.48119 7.00961,14.41822 8.73064,20.37472 22.11479,44.99219 5.73999,15.74806 10.62455,29.35752 19.06449,51.85542 15.25159,9.62707 30.50317,19.80613 45.75476,26.69028 69.49154,52.3567 128.1953,101.95743 215.04742,160.90426 14.08613,9.56031 56.28536,26.20172 88.64425,49.17515 56.0048,39.76101 106.38375,81.98851 161.48182,126.21813"
       style="fill:none;stroke:#000000;stroke-width:4.27044487;stroke-linejoin:round;stroke-miterlimit:4;stroke-dasharray:none" /></g><text
     xml:space="preserve"
     style="font-style:normal;font-weight:normal;font-size:57.54098129px;line-height:1.25;font-family:sans-serif;letter-spacing:0px;word-spacing:0px;fill:#000000;fill-opacity:1;stroke:none;stroke-width:0.29969263"
     x="173.11414"
     y="205.68625"
     id="text10109"
     transform="scale(1.0707178,0.93395287)"><tspan
       sodipodi:role="line"
       id="tspan10107"
       x="173.11414"
       y="256.59653"
       style="stroke-width:0.29969263" /></text>
<text
     xml:space="preserve"
     style="font-style:normal;font-weight:normal;font-size:25.57377052px;line-height:1.25;font-family:sans-serif;letter-spacing:0px;word-spacing:0px;fill:#000000;fill-opacity:1;stroke:none;stroke-width:0.29969263"
     x="179.27818"
     y="177.33162"
     id="text10113"
     transform="scale(1.0707178,0.93395287)"><tspan
       sodipodi:role="line"
       id="tspan10111"
       x="179.27818"
       y="199.95842"
       style="stroke-width:0.29969263" /></text>
<text
     xml:space="preserve"
     style="font-style:normal;font-weight:normal;font-size:25.57377052px;line-height:1.25;font-family:sans-serif;letter-spacing:0px;word-spacing:0px;fill:#000000;fill-opacity:1;stroke:none;stroke-width:0.29969263"
     x="164.48445"
     y="184.72847"
     id="text10117"
     transform="scale(1.0707178,0.93395287)"><tspan
       sodipodi:role="line"
       id="tspan10115"
       x="164.48445"
       y="207.35527"
       style="stroke-width:0.29969263" /></text>
<text
     xml:space="preserve"
     style="font-style:normal;font-weight:normal;font-size:25.57377052px;line-height:1.25;font-family:sans-serif;letter-spacing:0px;word-spacing:0px;fill:#000000;fill-opacity:1;stroke:none;stroke-width:0.29969263"
     x="166.95007"
     y="211.85028"
     id="text10121"
     transform="scale(1.0707178,0.93395287)"><tspan
       sodipodi:role="line"
       id="tspan10119"
       x="166.95007"
       y="234.47708"
       style="stroke-width:0.29969263" /></text>
<text
     xml:space="preserve"
     style="font-style:normal;font-weight:normal;font-size:25.57377052px;line-height:1.25;font-family:sans-serif;letter-spacing:0px;word-spacing:0px;fill:#000000;fill-opacity:1;stroke:none;stroke-width:0.29969263"
     x="150.79726"
     y="216.50586"
     id="text10125"
     transform="scale(1.0707178,0.93395287)"><tspan
       sodipodi:role="line"
       id="tspan10123"
       x="150.79726"
       y="239.13266"
       style="stroke-width:0.29969263" /></text>
<text
     xml:space="preserve"
     style="font-style:normal;font-variant:normal;font-weight:500;font-stretch:normal;font-size:19.18032837px;line-height:1.25;font-family:aakar;-inkscape-font-specification:'aakar, Medium';font-variant-ligatures:normal;font-variant-caps:normal;font-variant-numeric:normal;font-feature-settings:normal;text-align:start;letter-spacing:0px;word-spacing:0px;writing-mode:lr-tb;text-anchor:start;fill:#000000;fill-opacity:1;stroke:none;stroke-width:0.29969263"
     x="133.31642"
     y="162.23747"
     id="text10129"
     transform="scale(1.0707178,0.93395287)"><tspan
       sodipodi:role="line"
       id="tspan10127"
       x="133.31642"
       y="162.23747"
       style="stroke-width:0.29969263">z</tspan></text>
<text
     xml:space="preserve"
     style="font-style:normal;font-weight:normal;font-size:25.57377052px;line-height:1.25;font-family:sans-serif;letter-spacing:0px;word-spacing:0px;fill:#000000;fill-opacity:1;stroke:none;stroke-width:0.29969263"
     x="58.462833"
     y="199.52219"
     id="text10133"
     transform="scale(1.0707178,0.93395287)"><tspan
       sodipodi:role="line"
       id="tspan10131"
       x="58.462833"
       y="222.14899"
       style="stroke-width:0.29969263" /></text>
<text
     xml:space="preserve"
     style="font-style:normal;font-variant:normal;font-weight:500;font-stretch:normal;font-size:19.18032837px;line-height:1.25;font-family:aakar;-inkscape-font-specification:'aakar, Medium';font-variant-ligatures:normal;font-variant-caps:normal;font-variant-numeric:normal;font-feature-settings:normal;text-align:start;letter-spacing:0px;word-spacing:0px;writing-mode:lr-tb;text-anchor:start;fill:#000000;fill-opacity:1;stroke:none;stroke-width:0.29969263"
     x="75.708847"
     y="194.12772"
     id="text10137"
     transform="scale(1.0707178,0.93395287)"><tspan
       sodipodi:role="line"
       id="tspan10135"
       x="75.708847"
       y="194.12772"
       style="font-style:normal;font-variant:normal;font-weight:500;font-stretch:normal;font-size:19.18032837px;font-family:aakar;-inkscape-font-specification:'aakar, Medium';font-variant-ligatures:normal;font-variant-caps:normal;font-variant-numeric:normal;font-feature-settings:normal;text-align:start;writing-mode:lr-tb;text-anchor:start;fill:#ff0000;stroke-width:0.29969263">w</tspan></text>
<path
     style="fill:none;stroke:#000000;stroke-width:1.57892168;stroke-linecap:butt;stroke-linejoin:miter;stroke-miterlimit:4;stroke-dasharray:9.47352966, 3.15784322;stroke-dashoffset:0;stroke-opacity:1;marker-start:url(#marker3559)"
     d="m 140.22313,2.8902051 c 0,233.9380149 0,233.9380149 0,233.9380149 z"
     id="path90"
     inkscape:connector-curvature="0" /><path
     style="fill:#ff0000;stroke:#ff0000;stroke-width:0.65445513;stroke-linecap:butt;stroke-linejoin:miter;stroke-miterlimit:4;stroke-dasharray:3.92673115, 1.30891038;stroke-dashoffset:0;stroke-opacity:1;marker-start:url(#marker5003-1)"
     d="m 98.079624,188.94856 c 0,-40.19202 0,-40.19202 0,-40.19202 z"
     id="path90-8"
     inkscape:connector-curvature="0" /><path
     style="fill:none;stroke:#000000;stroke-width:0.29969263px;stroke-linecap:butt;stroke-linejoin:miter;stroke-opacity:1"
     d="M 141.18994,142.61204 Z"
     id="path102"
     inkscape:connector-curvature="0" /><path
     style="fill:none;stroke:#000000;stroke-width:0.82744318;stroke-linecap:butt;stroke-linejoin:miter;stroke-miterlimit:4;stroke-dasharray:0.82744318,2.48232955;stroke-dashoffset:3.50008466;stroke-opacity:1"
     d="m 99.308893,147.09042 h 41.239277 v 0 z"
     id="path106"
     inkscape:connector-curvature="0" /><path
     style="fill:none;stroke:#000000;stroke-width:2.51759386;stroke-linecap:butt;stroke-linejoin:miter;stroke-miterlimit:4;stroke-dasharray:none;stroke-opacity:1"
     d="M 0,236.65793 H 166.21907 Z"
     id="path1389"
     inkscape:connector-curvature="0" /><text
     xml:space="preserve"
     style="font-style:normal;font-variant:normal;font-weight:500;font-stretch:normal;font-size:25.57377052px;line-height:1.25;font-family:aakar;-inkscape-font-specification:'aakar, Medium';font-variant-ligatures:normal;font-variant-caps:normal;font-variant-numeric:normal;font-feature-settings:normal;text-align:start;letter-spacing:0px;word-spacing:0px;writing-mode:lr-tb;text-anchor:start;fill:#000000;fill-opacity:1;stroke:none;stroke-width:0.29969263"
     x="133.99274"
     y="249.93492"
     id="text10129-3"
     transform="scale(1.0707178,0.9339529)"><tspan
       sodipodi:role="line"
       id="tspan10127-6"
       x="133.99274"
       y="249.93492"
       style="font-size:19.18032837px;stroke-width:0.29969263">0</tspan></text>
</svg>