<?xml version="1.0" encoding="UTF-8" standalone="no"?>
<!-- Created with Inkscape (http://www.inkscape.org/) -->

<svg
   version="1.1"
   id="svg1"
   width="1297.36"
   height="326"
   viewBox="0 0 1297.36 326"
   sodipodi:docname="EU.svg"
   inkscape:version="1.3.1 (9b9bdc1480, 2023-11-25, custom)"
   xmlns:inkscape="http://www.inkscape.org/namespaces/inkscape"
   xmlns:sodipodi="http://sodipodi.sourceforge.net/DTD/sodipodi-0.dtd"
   xmlns="http://www.w3.org/2000/svg"
   xmlns:svg="http://www.w3.org/2000/svg">
  <defs
     id="defs1" />
  <sodipodi:namedview
     id="namedview1"
     pagecolor="#ffffff"
     bordercolor="#666666"
     borderopacity="1.0"
     inkscape:showpageshadow="2"
     inkscape:pageopacity="0.0"
     inkscape:pagecheckerboard="0"
     inkscape:deskcolor="#d1d1d1"
     showgrid="false"
     inkscape:zoom="1.058303"
     inkscape:cx="648.67999"
     inkscape:cy="163.46925"
     inkscape:window-width="1864"
     inkscape:window-height="1136"
     inkscape:window-x="56"
     inkscape:window-y="27"
     inkscape:window-maximized="1"
     inkscape:current-layer="g1">
    <inkscape:page
       x="0"
       y="0"
       inkscape:label="1"
       id="page1"
       width="1297.36"
       height="326"
       margin="0"
       bleed="0" />
  </sodipodi:namedview>
  <g
     id="g1"
     inkscape:groupmode="layer"
     inkscape:label="1">
    <g
       id="group-R5">
      <path
         id="path2"
         d="M 160.461,191.059 H 3109.91 V 2193.9 H 160.461 V 191.059"
         style="fill:#ffffff;fill-opacity:1;fill-rule:nonzero;stroke:none"
         transform="matrix(0.13333333,0,0,-0.13333333,0,326)" />
      <path
         id="path3"
         d="M 217.18,248.281 H 3053.2 V 2138.97 H 217.18 V 248.281"
         style="fill:#264ca4;fill-opacity:1;fill-rule:nonzero;stroke:none"
         transform="matrix(0.13333333,0,0,-0.13333333,0,326)" />
      <path
         id="path4"
         d="m 1574.76,1727.02 59.84,43.67 59.85,-43.67 -22.78,70.63 60.79,43.67 h -74.93 l -22.93,71.48 -22.93,-71.56 -74.88,0.08 60.74,-43.67 -22.77,-70.63"
         style="fill:#f5f014;fill-opacity:1;fill-rule:nonzero;stroke:none"
         transform="matrix(0.13333333,0,0,-0.13333333,0,326)" />
      <path
         id="path5"
         d="m 1265.07,1643.82 59.84,43.67 59.81,-43.67 -22.74,70.63 60.75,43.68 h -74.93 l -22.92,71.55 -22.93,-71.64 -74.89,0.09 60.74,-43.68 -22.73,-70.63"
         style="fill:#f5f014;fill-opacity:1;fill-rule:nonzero;stroke:none"
         transform="matrix(0.13333333,0,0,-0.13333333,0,326)" />
      <path
         id="path6"
         d="m 1098.31,1602.57 -22.93,-71.64 -74.88,0.09 60.74,-43.68 -22.77,-70.63 59.84,43.68 59.84,-43.68 -22.77,70.63 60.74,43.68 h -74.88 l -22.93,71.55"
         style="fill:#f5f014;fill-opacity:1;fill-rule:nonzero;stroke:none"
         transform="matrix(0.13333333,0,0,-0.13333333,0,326)" />
      <path
         id="path7"
         d="m 1015.19,1151.08 59.81,-43.66 -22.74,70.61 60.74,43.68 h -74.88 l -22.93,71.56 -22.928,-71.72 -74.922,0.16 60.781,-43.68 -22.766,-70.61 59.835,43.66"
         style="fill:#f5f014;fill-opacity:1;fill-rule:nonzero;stroke:none"
         transform="matrix(0.13333333,0,0,-0.13333333,0,326)" />
      <path
         id="path8"
         d="m 1121.24,911.48 -22.93,71.559 -22.93,-71.641 -74.88,0.082 60.74,-43.66 -22.77,-70.64 59.84,43.75 59.84,-43.75 -22.77,70.64 60.74,43.66 h -74.88"
         style="fill:#f5f014;fill-opacity:1;fill-rule:nonzero;stroke:none"
         transform="matrix(0.13333333,0,0,-0.13333333,0,326)" />
      <path
         id="path9"
         d="m 1348.27,684.461 -22.93,71.469 -22.89,-71.559 -74.92,0.09 60.74,-43.672 -22.73,-70.641 59.84,43.672 59.8,-43.672 -22.73,70.641 60.74,43.672 h -74.92"
         style="fill:#f5f014;fill-opacity:1;fill-rule:nonzero;stroke:none"
         transform="matrix(0.13333333,0,0,-0.13333333,0,326)" />
      <path
         id="path10"
         d="m 1657.57,602.18 -22.93,71.558 -22.89,-71.636 -74.92,0.078 60.74,-43.668 -22.73,-70.633 59.84,43.68 59.8,-43.68 -22.77,70.633 60.78,43.668 h -74.92"
         style="fill:#f5f014;fill-opacity:1;fill-rule:nonzero;stroke:none"
         transform="matrix(0.13333333,0,0,-0.13333333,0,326)" />
      <path
         id="path11"
         d="m 1966.87,684.461 -22.89,71.469 -22.97,-71.559 -74.84,0.09 60.7,-43.672 -22.73,-70.641 59.84,43.672 59.84,-43.672 -22.81,70.641 60.78,43.672 h -74.92"
         style="fill:#f5f014;fill-opacity:1;fill-rule:nonzero;stroke:none"
         transform="matrix(0.13333333,0,0,-0.13333333,0,326)" />
      <path
         id="path12"
         d="m 2193.98,911.48 -22.97,71.559 -22.97,-71.641 -74.84,0.082 60.78,-43.66 -22.81,-70.64 59.84,43.75 59.84,-43.75 -22.81,70.64 60.78,43.66 h -74.84"
         style="fill:#f5f014;fill-opacity:1;fill-rule:nonzero;stroke:none"
         transform="matrix(0.13333333,0,0,-0.13333333,0,326)" />
      <path
         id="path13"
         d="m 2351.09,1222.57 h -74.92 l -22.97,71.56 -22.89,-71.64 -74.92,0.08 60.78,-43.67 -22.74,-70.62 59.77,43.74 59.84,-43.74 -22.73,70.62 60.78,43.67"
         style="fill:#f5f014;fill-opacity:1;fill-rule:nonzero;stroke:none"
         transform="matrix(0.13333333,0,0,-0.13333333,0,326)" />
      <path
         id="path14"
         d="m 2111.16,1417.66 59.84,43.66 59.85,-43.66 -22.81,70.63 60.78,43.59 h -74.85 l -22.97,71.55 -22.96,-71.64 -74.85,0.09 60.78,-43.59 -22.81,-70.63"
         style="fill:#f5f014;fill-opacity:1;fill-rule:nonzero;stroke:none"
         transform="matrix(0.13333333,0,0,-0.13333333,0,326)" />
      <path
         id="path15"
         d="m 1944.84,1829.6 -22.89,-71.64 -74.92,0.17 60.7,-43.75 -22.73,-70.64 59.92,43.75 59.76,-43.75 -22.73,70.64 60.78,43.75 h -75 l -22.89,71.47"
         style="fill:#f5f014;fill-opacity:1;fill-rule:nonzero;stroke:none"
         transform="matrix(0.13333333,0,0,-0.13333333,0,326)" />
      <path
         id="path16"
         d="m 3404.3,1716.74 v 422.33 h 289.53 v -71.44 h -204.26 v -99.97 h 176.31 v -71.44 h -176.31 v -179.48 h -85.27"
         style="fill:#264ca4;fill-opacity:1;fill-rule:nonzero;stroke:none"
         transform="matrix(0.13333333,0,0,-0.13333333,0,326)" />
      <path
         id="path17"
         d="m 3763.54,1716.74 v 305.95 h 80.95 v -305.95 z m 0,347.44 v 74.89 h 80.95 v -74.89 h -80.95"
         style="fill:#264ca4;fill-opacity:1;fill-rule:nonzero;stroke:none"
         transform="matrix(0.13333333,0,0,-0.13333333,0,326)" />
      <path
         id="path18"
         d="m 4205.76,1716.74 h -80.95 v 156.15 c 0,33.03 -1.73,54.4 -5.19,64.09 -3.46,9.7 -9.07,17.24 -16.85,22.62 -7.78,5.38 -17.14,8.06 -28.09,8.06 -14.02,0 -26.6,-3.84 -37.74,-11.52 -11.14,-7.68 -18.77,-17.86 -22.9,-30.53 -4.14,-12.68 -6.2,-36.11 -6.2,-70.3 v -138.57 h -80.94 v 305.95 h 75.18 v -44.94 c 26.69,34.57 60.3,51.85 100.83,51.85 17.86,0 34.18,-3.21 48.98,-9.65 14.78,-6.43 25.97,-14.64 33.56,-24.63 7.58,-9.99 12.86,-21.32 15.84,-33.99 2.98,-12.68 4.47,-30.83 4.47,-54.45 v -190.14"
         style="fill:#264ca4;fill-opacity:1;fill-rule:nonzero;stroke:none"
         transform="matrix(0.13333333,0,0,-0.13333333,0,326)" />
      <path
         id="path19"
         d="m 4456.68,1863.67 c -10.37,-3.46 -26.8,-7.59 -49.27,-12.39 -22.47,-4.81 -37.15,-9.51 -44.07,-14.12 -10.56,-7.49 -15.85,-17 -15.85,-28.52 0,-11.33 4.22,-21.12 12.68,-29.38 8.45,-8.26 19.2,-12.39 32.26,-12.39 14.59,0 28.53,4.8 41.77,14.4 9.81,7.3 16.23,16.23 19.31,26.8 2.11,6.91 3.17,20.06 3.17,39.46 z m -108.32,65.68 -73.47,13.25 c 8.26,29.58 22.48,51.47 42.64,65.69 20.17,14.2 50.13,21.31 89.88,21.31 36.11,0 62.99,-4.28 80.67,-12.82 17.66,-8.55 30.11,-19.4 37.3,-32.55 7.21,-13.16 10.81,-37.31 10.81,-72.45 l -0.87,-94.49 c 0,-26.9 1.3,-46.72 3.89,-59.49 2.6,-12.78 7.44,-26.46 14.55,-41.06 h -80.09 c -2.12,5.38 -4.7,13.35 -7.77,23.91 -1.35,4.8 -2.3,7.97 -2.89,9.51 -13.83,-13.45 -28.61,-23.53 -44.36,-30.25 -15.75,-6.72 -32.55,-10.08 -50.42,-10.08 -31.5,0 -56.31,8.55 -74.47,25.64 -18.14,17.09 -27.21,38.69 -27.21,64.82 0,17.28 4.12,32.69 12.38,46.24 8.25,13.53 19.82,23.9 34.71,31.11 14.89,7.2 36.34,13.49 64.39,18.87 37.83,7.1 64.05,13.73 78.65,19.88 v 8.06 c 0,15.56 -3.85,26.65 -11.52,33.28 -7.69,6.62 -22.19,9.93 -43.51,9.93 -14.4,0 -25.63,-2.83 -33.7,-8.5 -8.07,-5.66 -14.6,-15.6 -19.59,-29.81"
         style="fill:#264ca4;fill-opacity:1;fill-rule:nonzero;stroke:none"
         transform="matrix(0.13333333,0,0,-0.13333333,0,326)" />
      <path
         id="path20"
         d="m 4894.29,1716.74 h -80.96 v 156.15 c 0,33.03 -1.73,54.4 -5.18,64.09 -3.46,9.7 -9.08,17.24 -16.86,22.62 -7.77,5.38 -17.14,8.06 -28.08,8.06 -14.03,0 -26.61,-3.84 -37.75,-11.52 -11.13,-7.68 -18.77,-17.86 -22.9,-30.53 -4.13,-12.68 -6.19,-36.11 -6.19,-70.3 v -138.57 h -80.95 v 305.95 h 75.19 v -44.94 c 26.69,34.57 60.3,51.85 100.83,51.85 17.86,0 34.18,-3.21 48.97,-9.65 14.79,-6.43 25.98,-14.64 33.57,-24.63 7.57,-9.99 12.86,-21.32 15.84,-33.99 2.98,-12.68 4.47,-30.83 4.47,-54.45 v -190.14"
         style="fill:#264ca4;fill-opacity:1;fill-rule:nonzero;stroke:none"
         transform="matrix(0.13333333,0,0,-0.13333333,0,326)" />
      <path
         id="path21"
         d="m 4943.84,1716.74 v 63.09 l 114.66,131.66 c 18.82,21.51 32.74,36.78 41.78,45.8 -9.42,-0.57 -21.81,-0.96 -37.17,-1.15 l -108.03,-0.57 v 67.12 h 252.93 v -57.33 l -116.95,-134.82 -41.2,-44.66 c 22.47,1.35 36.39,2.02 41.76,2.02 h 125.33 v -71.16 h -273.11"
         style="fill:#264ca4;fill-opacity:1;fill-rule:nonzero;stroke:none"
         transform="matrix(0.13333333,0,0,-0.13333333,0,326)" />
      <path
         id="path22"
         d="m 5271.39,1716.74 v 305.95 h 80.96 v -305.95 z m 0,347.44 v 74.89 h 80.96 v -74.89 h -80.96"
         style="fill:#264ca4;fill-opacity:1;fill-rule:nonzero;stroke:none"
         transform="matrix(0.13333333,0,0,-0.13333333,0,326)" />
      <path
         id="path23"
         d="m 5604.13,1863.67 c -10.37,-3.46 -26.79,-7.59 -49.26,-12.39 -22.48,-4.81 -37.16,-9.51 -44.08,-14.12 -10.56,-7.49 -15.85,-17 -15.85,-28.52 0,-11.33 4.22,-21.12 12.68,-29.38 8.45,-8.26 19.2,-12.39 32.26,-12.39 14.59,0 28.53,4.8 41.77,14.4 9.81,7.3 16.23,16.23 19.31,26.8 2.11,6.91 3.17,20.06 3.17,39.46 z m -108.32,65.68 -73.46,13.25 c 8.25,29.58 22.47,51.47 42.63,65.69 20.17,14.2 50.13,21.31 89.89,21.31 36.1,0 62.98,-4.28 80.66,-12.82 17.67,-8.55 30.11,-19.4 37.3,-32.55 7.21,-13.16 10.81,-37.31 10.81,-72.45 l -0.86,-94.49 c 0,-26.9 1.29,-46.72 3.88,-59.49 2.6,-12.78 7.44,-26.46 14.55,-41.06 h -80.09 c -2.11,5.38 -4.7,13.35 -7.77,23.91 -1.35,4.8 -2.3,7.97 -2.89,9.51 -13.83,-13.45 -28.61,-23.53 -44.35,-30.25 -15.76,-6.72 -32.56,-10.08 -50.42,-10.08 -31.51,0 -56.32,8.55 -74.48,25.64 -18.14,17.09 -27.21,38.69 -27.21,64.82 0,17.28 4.12,32.69 12.38,46.24 8.25,13.53 19.82,23.9 34.72,31.11 14.88,7.2 36.33,13.49 64.38,18.87 37.83,7.1 64.05,13.73 78.65,19.88 v 8.06 c 0,15.56 -3.84,26.65 -11.52,33.28 -7.69,6.62 -22.19,9.93 -43.51,9.93 -14.4,0 -25.63,-2.83 -33.7,-8.5 -8.06,-5.66 -14.6,-15.6 -19.59,-29.81"
         style="fill:#264ca4;fill-opacity:1;fill-rule:nonzero;stroke:none"
         transform="matrix(0.13333333,0,0,-0.13333333,0,326)" />
      <path
         id="path24"
         d="m 5903.74,2022.69 v -64.53 h -55.31 v -123.3 c 0,-24.97 0.53,-39.52 1.58,-43.65 1.06,-4.13 3.46,-7.54 7.21,-10.23 3.74,-2.68 8.3,-4.03 13.68,-4.03 7.49,0 18.34,2.6 32.56,7.78 l 6.91,-62.8 c -18.83,-8.07 -40.14,-12.1 -63.96,-12.1 -14.59,0 -27.76,2.45 -39.46,7.34 -11.72,4.9 -20.32,11.24 -25.79,19.01 -5.47,7.79 -9.26,18.3 -11.37,31.55 -1.74,9.41 -2.6,28.43 -2.6,57.04 v 133.39 h -37.17 v 64.53 h 37.17 v 60.79 l 81.24,47.24 v -108.03 h 55.31"
         style="fill:#264ca4;fill-opacity:1;fill-rule:nonzero;stroke:none"
         transform="matrix(0.13333333,0,0,-0.13333333,0,326)" />
      <path
         id="path25"
         d="m 6024.15,1869.71 c 0,-30.34 7.2,-53.58 21.61,-69.71 14.4,-16.13 32.16,-24.2 53.29,-24.2 21.13,0 38.84,8.07 53.16,24.2 14.31,16.13 21.46,39.56 21.46,70.29 0,29.96 -7.15,53.01 -21.46,69.14 -14.32,16.14 -32.03,24.2 -53.16,24.2 -21.13,0 -38.89,-8.06 -53.29,-24.2 -14.41,-16.13 -21.61,-39.37 -21.61,-69.72 z m -82.97,4.33 c 0,26.88 6.63,52.91 19.88,78.07 13.26,25.16 32.03,44.36 56.32,57.62 24.29,13.25 51.43,19.87 81.39,19.87 46.28,0 84.21,-15.03 113.79,-45.08 29.57,-30.06 44.37,-68.04 44.37,-113.94 0,-46.29 -14.94,-84.65 -44.8,-115.09 -29.87,-30.44 -67.46,-45.66 -112.79,-45.66 -28.04,0 -54.79,6.34 -80.23,19.01 -25.45,12.68 -44.79,31.26 -58.05,55.75 -13.25,24.48 -19.88,54.3 -19.88,89.45"
         style="fill:#264ca4;fill-opacity:1;fill-rule:nonzero;stroke:none"
         transform="matrix(0.13333333,0,0,-0.13333333,0,326)" />
      <path
         id="path26"
         d="m 3467.68,1168.34 c 0,-32.64 4.51,-56.27 13.54,-70.87 13.06,-21.12 31.3,-31.68 54.74,-31.68 18.62,0 34.47,7.92 47.54,23.76 13.05,15.84 19.59,39.52 19.59,71.02 0,35.14 -6.35,60.44 -19.03,75.91 -12.67,15.45 -28.9,23.19 -48.68,23.19 -19.21,0 -35.29,-7.63 -48.25,-22.91 -12.97,-15.26 -19.45,-38.07 -19.45,-68.42 z m 216.07,-159.6 h -75.19 v 44.95 c -12.49,-17.48 -27.23,-30.49 -44.22,-39.04 -17,-8.54 -34.14,-12.82 -51.43,-12.82 -35.14,0 -65.25,14.16 -90.31,42.49 -25.07,28.33 -37.6,67.85 -37.6,118.55 0,51.86 12.2,91.27 36.58,118.26 24.4,26.98 55.22,40.48 92.48,40.48 34.18,0 63.76,-14.22 88.74,-42.64 v 152.11 h 80.95 v -422.34"
         style="fill:#264ca4;fill-opacity:1;fill-rule:nonzero;stroke:none"
         transform="matrix(0.13333333,0,0,-0.13333333,0,326)" />
      <path
         id="path27"
         d="m 3932.37,1155.67 c -10.38,-3.46 -26.8,-7.59 -49.27,-12.38 -22.47,-4.81 -37.16,-9.52 -44.07,-14.13 -10.57,-7.49 -15.85,-16.99 -15.85,-28.51 0,-11.34 4.21,-21.13 12.67,-29.39 8.45,-8.26 19.2,-12.39 32.27,-12.39 14.59,0 28.52,4.81 41.76,14.41 9.81,7.29 16.24,16.23 19.31,26.79 2.11,6.92 3.18,20.07 3.18,39.47 z m -108.32,65.68 -73.47,13.25 c 8.25,29.58 22.47,51.47 42.64,65.69 20.16,14.21 50.12,21.32 89.88,21.32 36.1,0 62.99,-4.28 80.66,-12.83 17.67,-8.54 30.11,-19.4 37.31,-32.55 7.2,-13.15 10.81,-37.31 10.81,-72.45 l -0.87,-94.49 c 0,-26.89 1.3,-46.72 3.88,-59.49 2.6,-12.77 7.45,-26.46 14.56,-41.06 h -80.09 c -2.12,5.38 -4.71,13.35 -7.78,23.92 -1.34,4.8 -2.3,7.97 -2.89,9.5 -13.82,-13.45 -28.61,-23.52 -44.35,-30.24 -15.75,-6.72 -32.56,-10.09 -50.42,-10.09 -31.51,0 -56.32,8.54 -74.47,25.64 -18.15,17.09 -27.22,38.7 -27.22,64.82 0,17.28 4.12,32.69 12.38,46.24 8.25,13.53 19.83,23.91 34.72,31.11 14.88,7.2 36.34,13.49 64.38,18.87 37.84,7.1 64.06,13.73 78.66,19.88 v 8.06 c 0,15.56 -3.85,26.65 -11.53,33.28 -7.68,6.62 -22.19,9.94 -43.5,9.94 -14.41,0 -25.64,-2.84 -33.71,-8.5 -8.06,-5.67 -14.59,-15.61 -19.58,-29.82"
         style="fill:#264ca4;fill-opacity:1;fill-rule:nonzero;stroke:none"
         transform="matrix(0.13333333,0,0,-0.13333333,0,326)" />
      <path
         id="path28"
         d="m 4091.67,1008.74 v 422.34 h 80.96 v -422.34 h -80.96"
         style="fill:#264ca4;fill-opacity:1;fill-rule:nonzero;stroke:none"
         transform="matrix(0.13333333,0,0,-0.13333333,0,326)" />
      <path
         id="path29"
         d="m 4255.59,1008.74 v 422.34 h 80.96 v -422.34 h -80.96"
         style="fill:#264ca4;fill-opacity:1;fill-rule:nonzero;stroke:none"
         transform="matrix(0.13333333,0,0,-0.13333333,0,326)" />
      <path
         id="path30"
         d="m 4418.95,1280.99 -15.28,78.64 v 71.45 h 88.16 v -71.45 l -13.25,-78.64 h -59.63"
         style="fill:#264ca4;fill-opacity:1;fill-rule:nonzero;stroke:none"
         transform="matrix(0.13333333,0,0,-0.13333333,0,326)" />
      <path
         id="path31"
         d="m 4559.81,1431.08 h 85.27 v -228.74 c 0,-36.3 1.05,-59.83 3.17,-70.58 3.65,-17.28 12.34,-31.16 26.08,-41.63 13.73,-10.47 32.5,-15.7 56.32,-15.7 24.2,0 42.44,4.94 54.73,14.83 12.29,9.89 19.69,22.04 22.18,36.45 2.5,14.4 3.75,38.31 3.75,71.73 v 233.64 h 85.27 v -221.83 c 0,-50.7 -2.3,-86.52 -6.91,-107.45 -4.61,-20.94 -13.11,-38.6 -25.5,-53.01 -12.38,-14.4 -28.95,-25.89 -49.7,-34.43 -20.74,-8.54 -47.81,-12.81 -81.23,-12.81 -40.33,0 -70.92,4.66 -91.75,13.96 -20.84,9.32 -37.31,21.42 -49.42,36.3 -12.09,14.88 -20.07,30.49 -23.9,46.82 -5.58,24.2 -8.36,59.92 -8.36,107.16 v 225.29"
         style="fill:#264ca4;fill-opacity:1;fill-rule:nonzero;stroke:none"
         transform="matrix(0.13333333,0,0,-0.13333333,0,326)" />
      <path
         id="path32"
         d="m 5264.19,1008.74 h -80.96 v 156.15 c 0,33.03 -1.72,54.4 -5.18,64.1 -3.46,9.69 -9.07,17.23 -16.86,22.61 -7.77,5.38 -17.14,8.07 -28.08,8.07 -14.03,0 -26.6,-3.85 -37.75,-11.53 -11.13,-7.68 -18.77,-17.86 -22.9,-30.53 -4.13,-12.68 -6.19,-36.11 -6.19,-70.29 v -138.58 h -80.95 v 305.95 h 75.19 v -44.94 c 26.69,34.57 60.3,51.86 100.83,51.86 17.86,0 34.18,-3.22 48.97,-9.65 14.79,-6.44 25.98,-14.65 33.57,-24.64 7.58,-9.99 12.86,-21.32 15.84,-33.99 2.98,-12.68 4.47,-30.83 4.47,-54.45 v -190.14"
         style="fill:#264ca4;fill-opacity:1;fill-rule:nonzero;stroke:none"
         transform="matrix(0.13333333,0,0,-0.13333333,0,326)" />
      <path
         id="path33"
         d="m 5346.29,1008.74 v 305.95 h 80.96 v -305.95 z m 0,347.44 v 74.9 h 80.96 v -74.9 h -80.96"
         style="fill:#264ca4;fill-opacity:1;fill-rule:nonzero;stroke:none"
         transform="matrix(0.13333333,0,0,-0.13333333,0,326)" />
      <path
         id="path34"
         d="m 5574.45,1161.72 c 0,-30.35 7.2,-53.58 21.62,-69.71 14.39,-16.14 32.15,-24.2 53.29,-24.2 21.12,0 38.84,8.06 53.15,24.2 14.31,16.13 21.47,39.56 21.47,70.28 0,29.96 -7.16,53.01 -21.47,69.14 -14.31,16.14 -32.03,24.2 -53.15,24.2 -21.14,0 -38.9,-8.06 -53.29,-24.2 -14.42,-16.13 -21.62,-39.37 -21.62,-69.71 z m -82.96,4.32 c 0,26.88 6.63,52.91 19.87,78.07 13.26,25.16 32.03,44.37 56.33,57.62 24.28,13.25 51.42,19.88 81.38,19.88 46.28,0 84.21,-15.03 113.79,-45.09 29.57,-30.06 44.37,-68.04 44.37,-113.94 0,-46.29 -14.93,-84.65 -44.8,-115.09 -29.87,-30.44 -67.46,-45.66 -112.79,-45.66 -28.04,0 -54.78,6.34 -80.22,19.01 -25.45,12.68 -44.8,31.26 -58.06,55.75 -13.24,24.49 -19.87,54.3 -19.87,89.45"
         style="fill:#264ca4;fill-opacity:1;fill-rule:nonzero;stroke:none"
         transform="matrix(0.13333333,0,0,-0.13333333,0,326)" />
      <path
         id="path35"
         d="m 6148.91,1008.74 h -80.96 v 156.15 c 0,33.03 -1.73,54.4 -5.18,64.1 -3.46,9.69 -9.08,17.23 -16.86,22.61 -7.77,5.38 -17.14,8.07 -28.09,8.07 -14.02,0 -26.6,-3.85 -37.74,-11.53 -11.13,-7.68 -18.77,-17.86 -22.9,-30.53 -4.13,-12.68 -6.19,-36.11 -6.19,-70.29 v -138.58 h -80.95 v 305.95 h 75.19 v -44.94 c 26.69,34.57 60.3,51.86 100.83,51.86 17.86,0 34.18,-3.22 48.97,-9.65 14.79,-6.44 25.98,-14.65 33.57,-24.64 7.57,-9.99 12.86,-21.32 15.84,-33.99 2.97,-12.68 4.47,-30.83 4.47,-54.45 v -190.14"
         style="fill:#264ca4;fill-opacity:1;fill-rule:nonzero;stroke:none"
         transform="matrix(0.13333333,0,0,-0.13333333,0,326)" />
      <path
         id="path36"
         d="m 6412.79,1187.93 c -0.58,23.43 -6.64,41.24 -18.16,53.44 -11.52,12.2 -25.54,18.3 -42.05,18.3 -17.68,0 -32.27,-6.44 -43.79,-19.3 -11.52,-12.88 -17.2,-30.35 -17,-52.44 z m -4.61,-81.81 80.66,-13.54 c -10.37,-29.58 -26.75,-52.1 -49.12,-67.56 -22.37,-15.46 -50.37,-23.19 -83.98,-23.19 -53.2,0 -92.57,17.38 -118.11,52.15 -20.17,27.84 -30.25,62.99 -30.25,105.43 0,50.71 13.25,90.41 39.75,119.13 26.5,28.71 60.02,43.07 100.55,43.07 45.52,0 81.42,-15.03 107.74,-45.09 26.31,-30.06 38.9,-76.11 37.75,-138.14 h -202.82 c 0.57,-24 7.1,-42.68 19.59,-56.03 12.48,-13.35 28.04,-20.02 46.66,-20.02 12.68,0 23.34,3.46 31.99,10.37 8.64,6.91 15.16,18.06 19.59,33.42"
         style="fill:#264ca4;fill-opacity:1;fill-rule:nonzero;stroke:none"
         transform="matrix(0.13333333,0,0,-0.13333333,0,326)" />
      <path
         id="path37"
         d="m 6904.84,1187.93 c -0.58,23.43 -6.64,41.24 -18.16,53.44 -11.52,12.2 -25.54,18.3 -42.05,18.3 -17.68,0 -32.26,-6.44 -43.79,-19.3 -11.52,-12.88 -17.2,-30.35 -17,-52.44 z m -4.61,-81.81 80.66,-13.54 c -10.37,-29.58 -26.75,-52.1 -49.12,-67.56 -22.37,-15.46 -50.37,-23.19 -83.98,-23.19 -53.2,0 -92.57,17.38 -118.11,52.15 -20.17,27.84 -30.24,62.99 -30.24,105.43 0,50.71 13.24,90.41 39.74,119.13 26.51,28.71 60.02,43.07 100.55,43.07 45.52,0 81.42,-15.03 107.74,-45.09 26.31,-30.06 38.9,-76.11 37.75,-138.14 H 6782.4 c 0.57,-24 7.1,-42.68 19.59,-56.03 12.48,-13.35 28.04,-20.02 46.66,-20.02 12.68,0 23.34,3.46 31.99,10.37 8.64,6.91 15.16,18.06 19.59,33.42"
         style="fill:#264ca4;fill-opacity:1;fill-rule:nonzero;stroke:none"
         transform="matrix(0.13333333,0,0,-0.13333333,0,326)" />
      <path
         id="path38"
         d="m 7252.55,1008.74 v 45.81 c -11.14,-16.32 -25.78,-29.19 -43.93,-38.6 -18.15,-9.41 -37.31,-14.12 -57.48,-14.12 -20.55,0 -38.99,4.52 -55.31,13.54 -16.33,9.03 -28.13,21.7 -35.44,38.03 -7.29,16.32 -10.94,38.89 -10.94,67.7 v 193.59 h 80.95 v -140.58 c 0,-43.02 1.49,-69.39 4.47,-79.09 2.97,-9.69 8.39,-17.38 16.27,-23.04 7.88,-5.67 17.87,-8.5 29.97,-8.5 13.82,0 26.22,3.79 37.15,11.38 10.96,7.59 18.44,17 22.48,28.23 4.03,11.24 6.05,38.75 6.05,82.54 v 129.06 h 80.95 v -305.95 h -75.19"
         style="fill:#264ca4;fill-opacity:1;fill-rule:nonzero;stroke:none"
         transform="matrix(0.13333333,0,0,-0.13333333,0,326)" />
      <path
         id="path39"
         d="m 7489.07,1008.74 h -80.95 v 305.95 h 75.19 v -43.5 c 12.86,20.55 24.44,34.09 34.72,40.62 10.27,6.53 21.93,9.8 35,9.8 18.44,0 36.2,-5.1 53.29,-15.27 l -25.06,-70.58 c -13.64,8.83 -26.32,13.25 -38.03,13.25 -11.33,0 -20.93,-3.13 -28.8,-9.37 -7.89,-6.24 -14.08,-17.52 -18.59,-33.85 -4.51,-16.32 -6.77,-50.51 -6.77,-102.55 v -94.5"
         style="fill:#264ca4;fill-opacity:1;fill-rule:nonzero;stroke:none"
         transform="matrix(0.13333333,0,0,-0.13333333,0,326)" />
      <path
         id="path40"
         d="m 7705.42,1161.72 c 0,-30.35 7.2,-53.58 21.61,-69.71 14.4,-16.14 32.16,-24.2 53.29,-24.2 21.13,0 38.84,8.06 53.16,24.2 14.31,16.13 21.46,39.56 21.46,70.28 0,29.96 -7.15,53.01 -21.46,69.14 -14.32,16.14 -32.03,24.2 -53.16,24.2 -21.13,0 -38.89,-8.06 -53.29,-24.2 -14.41,-16.13 -21.61,-39.37 -21.61,-69.71 z m -82.97,4.32 c 0,26.88 6.63,52.91 19.88,78.07 13.26,25.16 32.03,44.37 56.32,57.62 24.29,13.25 51.43,19.88 81.39,19.88 46.28,0 84.21,-15.03 113.79,-45.09 29.57,-30.06 44.37,-68.04 44.37,-113.94 0,-46.29 -14.94,-84.65 -44.8,-115.09 -29.87,-30.44 -67.46,-45.66 -112.79,-45.66 -28.04,0 -54.79,6.34 -80.23,19.01 -25.45,12.68 -44.79,31.26 -58.05,55.75 -13.25,24.49 -19.88,54.3 -19.88,89.45"
         style="fill:#264ca4;fill-opacity:1;fill-rule:nonzero;stroke:none"
         transform="matrix(0.13333333,0,0,-0.13333333,0,326)" />
      <path
         id="path41"
         d="m 8079.37,1166.9 c 0,-34.38 6.8,-59.78 20.45,-76.19 13.63,-16.43 30.25,-24.63 49.84,-24.63 18.82,0 34.46,7.53 46.95,22.61 12.48,15.07 18.73,39.8 18.73,74.18 0,32.07 -6.44,55.89 -19.3,71.45 -12.87,15.55 -28.81,23.33 -47.83,23.33 -19.78,0 -36.2,-7.64 -49.25,-22.9 -13.07,-15.27 -19.59,-37.89 -19.59,-67.85 z m -80.1,147.79 h 75.49 v -44.94 c 9.78,15.36 23.04,27.85 39.74,37.45 16.72,9.6 35.25,14.41 55.61,14.41 35.53,0 65.68,-13.93 90.46,-41.78 24.77,-27.85 37.16,-66.64 37.16,-116.38 0,-51.09 -12.48,-90.8 -37.44,-119.13 -24.98,-28.33 -55.23,-42.49 -90.76,-42.49 -16.9,0 -32.21,3.37 -45.94,10.09 -13.74,6.72 -28.2,18.24 -43.36,34.57 V 892.359 h -80.96 v 422.331"
         style="fill:#264ca4;fill-opacity:1;fill-rule:nonzero;stroke:none"
         transform="matrix(0.13333333,0,0,-0.13333333,0,326)" />
      <path
         id="path42"
         d="m 8543.76,1187.93 c -0.57,23.43 -6.63,41.24 -18.15,53.44 -11.53,12.2 -25.54,18.3 -42.05,18.3 -17.68,0 -32.27,-6.44 -43.79,-19.3 -11.53,-12.88 -17.2,-30.35 -17,-52.44 z m -4.61,-81.81 80.67,-13.54 c -10.37,-29.58 -26.75,-52.1 -49.12,-67.56 -22.38,-15.46 -50.38,-23.19 -83.98,-23.19 -53.2,0 -92.58,17.38 -118.11,52.15 -20.17,27.84 -30.25,62.99 -30.25,105.43 0,50.71 13.24,90.41 39.75,119.13 26.5,28.71 60.02,43.07 100.54,43.07 45.52,0 81.43,-15.03 107.75,-45.09 26.31,-30.06 38.89,-76.11 37.74,-138.14 h -202.81 c 0.57,-24 7.1,-42.68 19.59,-56.03 12.48,-13.35 28.04,-20.02 46.66,-20.02 12.68,0 23.34,3.46 31.98,10.37 8.64,6.91 15.17,18.06 19.59,33.42"
         style="fill:#264ca4;fill-opacity:1;fill-rule:nonzero;stroke:none"
         transform="matrix(0.13333333,0,0,-0.13333333,0,326)" />
      <path
         id="path43"
         d="m 8858.93,1155.67 c -10.37,-3.46 -26.8,-7.59 -49.27,-12.38 -22.47,-4.81 -37.16,-9.52 -44.07,-14.13 -10.57,-7.49 -15.85,-16.99 -15.85,-28.51 0,-11.34 4.22,-21.13 12.67,-29.39 8.45,-8.26 19.2,-12.39 32.27,-12.39 14.59,0 28.52,4.81 41.77,14.41 9.8,7.29 16.23,16.23 19.3,26.79 2.11,6.92 3.18,20.07 3.18,39.47 z m -108.32,65.68 -73.47,13.25 c 8.25,29.58 22.47,51.47 42.64,65.69 20.16,14.21 50.12,21.32 89.88,21.32 36.1,0 62.99,-4.28 80.66,-12.83 17.67,-8.54 30.11,-19.4 37.31,-32.55 7.21,-13.15 10.81,-37.31 10.81,-72.45 l -0.87,-94.49 c 0,-26.89 1.3,-46.72 3.89,-59.49 2.59,-12.77 7.44,-26.46 14.55,-41.06 h -80.09 c -2.12,5.38 -4.71,13.35 -7.77,23.92 -1.35,4.8 -2.31,7.97 -2.89,9.5 -13.83,-13.45 -28.62,-23.52 -44.36,-30.24 -15.75,-6.72 -32.56,-10.09 -50.42,-10.09 -31.5,0 -56.32,8.54 -74.47,25.64 -18.15,17.09 -27.22,38.7 -27.22,64.82 0,17.28 4.12,32.69 12.38,46.24 8.26,13.53 19.83,23.91 34.72,31.11 14.88,7.2 36.34,13.49 64.39,18.87 37.83,7.1 64.05,13.73 78.65,19.88 v 8.06 c 0,15.56 -3.85,26.65 -11.53,33.28 -7.68,6.62 -22.18,9.94 -43.5,9.94 -14.41,0 -25.64,-2.84 -33.7,-8.5 -8.07,-5.67 -14.6,-15.61 -19.59,-29.82"
         style="fill:#264ca4;fill-opacity:1;fill-rule:nonzero;stroke:none"
         transform="matrix(0.13333333,0,0,-0.13333333,0,326)" />
      <path
         id="path44"
         d="M 8.5185781,5.453125e-4 V -28.663517 L 27.690453,5.453125e-4 h 4.945313 V -36.51508 H 27.995141 V -7.8510172 L 8.8232656,-36.51508 H 3.8779531 V 5.453125e-4 Z M 55.499047,-4.4408609 c -1.171875,0.8671875 -2.554688,1.3359375 -4.183594,1.3359375 -2.25,0 -4.078125,-0.7734375 -5.554687,-2.296875 -1.488282,-1.5820313 -2.296875,-3.7734375 -2.449219,-6.6796876 h 19.734375 c 0,-0.515625 0,-0.925781 0,-1.183594 0,-4.382812 -1.125,-7.746093 -3.363281,-10.148437 -2.25,-2.390625 -5.109375,-3.621094 -8.625,-3.621094 -3.667969,0 -6.632813,1.230469 -8.917969,3.679688 -2.296875,2.449218 -3.421875,5.917968 -3.421875,10.347656 0,4.2890623 1.125,7.6054686 3.421875,9.9960936 2.238281,2.40234371 5.296875,3.57421871 9.175781,3.57421871 3.058594,0 5.554688,-0.76171875 7.546875,-2.25000001 1.933594,-1.4765625 3.316406,-3.5625 4.03125,-6.2695312 l -4.640625,-0.609375 c -0.667969,1.8867187 -1.582031,3.2578125 -2.753906,4.125 z M 45.913109,-21.268986 c 1.371094,-1.371094 3.105469,-2.085937 5.144532,-2.085937 2.296875,0 4.136718,0.867187 5.566406,2.601562 0.914062,1.113281 1.476562,2.753906 1.675781,4.992188 H 43.557641 c 0.164062,-2.296875 0.925781,-4.125 2.355468,-5.507813 z M 70.959008,5.453125e-4 78.048852,-10.101017 l 1.277343,1.9453123 5.449219,8.1562500125 h 5.460938 L 80.650414,-13.722111 l 8.976563,-12.75 h -5.460938 l -4.382812,6.222656 c -0.621094,0.867188 -1.277344,1.839844 -2.039063,2.90625 -0.46875,-0.761718 -1.078125,-1.734375 -1.839844,-2.847656 l -4.183593,-6.28125 h -5.507813 l 8.976563,12.75 L 65.49807,5.453125e-4 Z M 101.86135,-3.8197672 c -0.65625,0 -1.17187,-0.1054687 -1.52344,-0.3164062 -0.363277,-0.2460938 -0.62109,-0.5039063 -0.773433,-0.9140625 -0.152344,-0.3515625 -0.257813,-1.171875 -0.257813,-2.4492188 V -23.003361 h 4.488286 v -3.46875 h -4.488286 v -9.222656 l -4.476562,2.695312 v 6.527344 h -3.316407 v 3.46875 h 3.316407 v 15.2460938 c 0,2.7070313 0.199218,4.4414063 0.550781,5.3085938 0.363281,0.8203125 0.972656,1.53515621 1.886719,2.03906246 0.867187,0.515625 2.144531,0.76171875 3.773438,0.76171875 0.97266,0 2.09766,-0.15234375 3.375,-0.3984375 l -0.62109,-3.92578121 c -0.8086,0.09375 -1.47657,0.1523437 -1.9336,0.1523437 z m 34.72559,-10.5117188 v 6.8320313 c -1.01953,0.9257813 -2.55469,1.7929688 -4.53516,2.6015625 -1.99219,0.8203125 -4.03125,1.2304688 -6.1289,1.2304688 -2.39063,0 -4.64063,-0.515625 -6.77344,-1.5820313 -2.14453,-1.078125 -3.77344,-2.7070312 -4.89844,-4.8984373 -1.125,-2.191406 -1.6875,-4.945313 -1.6875,-8.214844 0,-2.648437 0.45703,-5.097656 1.38281,-7.335937 0.5625,-1.335938 1.32422,-2.554688 2.28516,-3.621094 1.03125,-1.125 2.29687,-1.992188 3.9375,-2.660156 1.58203,-0.65625 3.51562,-1.019532 5.70703,-1.019532 1.83984,0 3.51563,0.304688 5.00391,0.972657 1.52343,0.609375 2.69531,1.476562 3.51562,2.554687 0.8086,1.066406 1.47656,2.496094 2.03906,4.382813 l 4.33594,-1.230469 c -0.60937,-2.449219 -1.53515,-4.429688 -2.7539,-5.964844 -1.23047,-1.523437 -2.90625,-2.695312 -5.00391,-3.5625 -2.13281,-0.867187 -4.53516,-1.277344 -7.18359,-1.277344 -3.6211,0 -6.83204,0.761719 -9.64454,2.238282 -2.7539,1.476562 -4.89843,3.773437 -6.375,6.832031 -1.47656,3.117187 -2.23828,6.433594 -2.23828,9.949219 0,3.621093 0.76172,6.832031 2.23828,9.7382808 1.47657,2.90625 3.72657,5.15625 6.63282,6.6796875 2.90625,1.53515626 6.16406,2.29687501 9.78515,2.29687501 2.66016,0 5.26172,-0.45703125 7.75782,-1.4296875 2.49609,-0.96093751 4.94531,-2.39062501 7.34765,-4.27734371 V -18.60883 H 125.876 v 4.277344 z m 26.61328,9.8906251 c -1.17188,0.8671875 -2.55469,1.3359375 -4.18359,1.3359375 -2.25,0 -4.07813,-0.7734375 -5.55469,-2.296875 -1.48828,-1.5820313 -2.29688,-3.7734375 -2.44922,-6.6796876 h 19.73437 c 0,-0.515625 0,-0.925781 0,-1.183594 0,-4.382812 -1.125,-7.746093 -3.36328,-10.148437 -2.25,-2.390625 -5.10937,-3.621094 -8.625,-3.621094 -3.66797,0 -6.63281,1.230469 -8.91797,3.679688 -2.29687,2.449218 -3.42187,5.917968 -3.42187,10.347656 0,4.2890623 1.125,7.6054686 3.42187,9.9960936 2.23829,2.40234371 5.29688,3.57421871 9.17579,3.57421871 3.05859,0 5.55468,-0.76171875 7.54687,-2.25000001 1.93359,-1.4765625 3.31641,-3.5625 4.03125,-6.2695312 l -4.64062,-0.609375 c -0.66797,1.8867187 -1.58204,3.2578125 -2.75391,4.125 z m -9.58594,-16.8281251 c 1.3711,-1.371094 3.10547,-2.085937 5.14453,-2.085937 2.29688,0 4.13672,0.867187 5.56641,2.601562 0.91406,1.113281 1.47656,2.753906 1.67578,4.992188 h -14.74219 c 0.16407,-2.296875 0.92578,-4.125 2.35547,-5.507813 z M 180.74905,5.453125e-4 V -14.436955 c 0,-3.410156 0.71484,-5.707031 2.09765,-6.878906 1.3711,-1.230469 3,-1.839844 4.88672,-1.839844 1.23047,0 2.25,0.257813 3.11719,0.820313 0.91406,0.503906 1.52344,1.277344 1.88672,2.144531 0.35156,0.914063 0.5039,2.285156 0.5039,4.125 V 5.453125e-4 h 4.48829 V -16.26508 c 0,-2.039062 -0.0937,-3.527343 -0.2461,-4.335937 -0.25781,-1.277344 -0.71484,-2.402344 -1.38281,-3.316406 -0.65625,-0.914063 -1.67578,-1.6875 -3.01172,-2.25 -1.32422,-0.550782 -2.80078,-0.867188 -4.38281,-0.867188 -3.66797,0 -6.48047,1.429688 -8.41406,4.335938 v -3.773438 h -4.03125 V 5.453125e-4 Z M 219.92776,-4.4408609 c -1.17188,0.8671875 -2.55469,1.3359375 -4.1836,1.3359375 -2.25,0 -4.07812,-0.7734375 -5.55468,-2.296875 -1.48828,-1.5820313 -2.29688,-3.7734375 -2.44922,-6.6796876 h 19.73437 c 0,-0.515625 0,-0.925781 0,-1.183594 0,-4.382812 -1.125,-7.746093 -3.36328,-10.148437 -2.25,-2.390625 -5.10937,-3.621094 -8.625,-3.621094 -3.66797,0 -6.63281,1.230469 -8.91797,3.679688 -2.29687,2.449218 -3.42187,5.917968 -3.42187,10.347656 0,4.2890623 1.125,7.6054686 3.42187,9.9960936 2.23828,2.40234371 5.29688,3.57421871 9.17578,3.57421871 3.0586,0 5.55469,-0.76171875 7.54688,-2.25000001 1.93359,-1.4765625 3.31641,-3.5625 4.03125,-6.2695312 l -4.64063,-0.609375 c -0.66796,1.8867187 -1.58203,3.2578125 -2.7539,4.125 z m -9.58594,-16.8281251 c 1.37109,-1.371094 3.10547,-2.085937 5.14453,-2.085937 2.29688,0 4.13672,0.867187 5.56641,2.601562 0.91406,1.113281 1.47656,2.753906 1.67578,4.992188 h -14.74219 c 0.16406,-2.296875 0.92578,-4.125 2.35547,-5.507813 z M 237.42971,5.453125e-4 V -13.815861 c 0,-1.886719 0.25781,-3.621094 0.76172,-5.261719 0.30469,-1.019531 0.86719,-1.828125 1.62891,-2.449218 0.77343,-0.550782 1.6875,-0.867188 2.66015,-0.867188 1.06641,0 2.13281,0.316406 3.25781,0.925781 l 1.58204,-4.136718 c -1.58204,-0.960938 -3.10547,-1.429688 -4.59375,-1.429688 -1.06641,0 -2.03907,0.316406 -2.90625,0.925781 -0.86719,0.5625 -1.82813,1.828125 -2.84766,3.667969 v -4.03125 h -4.03125 V 5.453125e-4 Z m 30.70606,0 h 4.6875 C 272.26077,-1.0189859 271.9092,-2.0853922 271.69827,-3.2103922 c -0.15235,-1.078125 -0.25782,-3.7265625 -0.25782,-7.8515628 v -5.976562 c 0,-1.980469 -0.0469,-3.363281 -0.19922,-4.125 -0.30468,-1.230469 -0.76171,-2.25 -1.42968,-3.058594 -0.65625,-0.820312 -1.67578,-1.476562 -3.10547,-1.992187 -1.42969,-0.5625 -3.26953,-0.820313 -5.50781,-0.820313 -2.29688,0 -4.28907,0.316406 -6.02344,0.925781 -1.73438,0.65625 -3.0586,1.523438 -3.97266,2.695313 -0.92578,1.125 -1.58203,2.660156 -1.99219,4.546875 l 4.38282,0.609375 c 0.45703,-1.886719 1.23047,-3.210938 2.25,-3.925781 1.01953,-0.761719 2.54297,-1.125 4.6875,-1.125 2.25,0 3.98437,0.515625 5.09765,1.535156 0.86719,0.714844 1.27735,1.980469 1.27735,3.820312 0,0.152344 0,0.5625 0,1.171875 -1.73438,0.609375 -4.38282,1.125 -8.0625,1.535157 -1.72266,0.199218 -3.0586,0.457031 -3.97266,0.65625 -1.17187,0.363281 -2.23828,0.820312 -3.21094,1.488281 -0.97265,0.65625 -1.73437,1.523437 -2.34375,2.589844 -0.5625,1.0312496 -0.86718,2.2499996 -0.86718,3.5273433 0,2.1914063 0.76171,4.03125 2.34375,5.4023438 1.58203,1.42968746 3.82031,2.14453121 6.72656,2.14453121 1.73437,0 3.42187,-0.3046875 4.94531,-0.8671875 1.53516,-0.609375 3.11719,-1.58203121 4.80469,-3.01171871 0.15234,1.2773437 0.39844,2.34374996 0.86719,3.3164062125 z M 266.9053,-11.624455 c 0,1.9804691 -0.25782,3.4687503 -0.76172,4.4296878 -0.60938,1.3359375 -1.58203,2.3554688 -2.96485,3.1171875 -1.32421,0.7617188 -2.84765,1.125 -4.58203,1.125 -1.79297,0 -3.11718,-0.4101562 -3.98437,-1.1835937 -0.91406,-0.8085938 -1.3711,-1.78125 -1.3711,-3 0,-0.7734375 0.19922,-1.4765625 0.60938,-2.0976563 0.41016,-0.65625 1.01953,-1.1132813 1.78125,-1.4765623 0.77344,-0.304688 2.09766,-0.609375 3.92578,-0.867188 3.26953,-0.457031 5.71875,-1.019531 7.34766,-1.6875 z m 19.2334,7.8046878 c -0.65625,0 -1.17188,-0.1054687 -1.52344,-0.3164062 -0.36328,-0.2460938 -0.6211,-0.5039063 -0.77344,-0.9140625 -0.15234,-0.3515625 -0.25781,-1.171875 -0.25781,-2.4492188 V -23.003361 h 4.48828 v -3.46875 h -4.48828 v -9.222656 l -4.47656,2.695312 v 6.527344 h -3.31641 v 3.46875 h 3.31641 v 15.2460938 c 0,2.7070313 0.19921,4.4414063 0.55078,5.3085938 0.36328,0.8203125 0.97265,1.53515621 1.88672,2.03906246 0.86718,0.515625 2.14453,0.76171875 3.77343,0.76171875 0.97266,0 2.09766,-0.15234375 3.375,-0.3984375 l -0.62109,-3.92578121 c -0.80859,0.09375 -1.47656,0.1523437 -1.93359,0.1523437 z m 10.85449,-27.5976558 v -5.097657 h -4.48828 v 5.097657 z m 0,31.4179683125 V -26.472111 h -4.48828 V 5.453125e-4 Z M 305.56838,-3.0111734 c 2.29688,2.40234371 5.3086,3.57421871 8.97657,3.57421871 2.34375,0 4.4414,-0.5624999975 6.43359,-1.62890621 1.93359,-1.078125 3.41016,-2.5546875 4.42969,-4.546875 1.01953,-1.9335938 1.53515,-4.5820311 1.53515,-8.0039061 0,-4.183594 -1.17187,-7.441406 -3.46875,-9.84375 -2.29687,-2.390625 -5.26172,-3.574219 -8.92968,-3.574219 -3.25782,0 -6.01172,0.972656 -8.3086,2.964844 -2.70703,2.34375 -4.07812,5.964844 -4.07812,10.804687 0,4.4882816 1.11328,7.9101566 3.41015,10.2539066 z m 3.42188,-17.8007816 c 1.47656,-1.675781 3.3164,-2.496093 5.55469,-2.496093 2.25,0 4.07812,0.820312 5.5664,2.496093 1.47656,1.6875 2.23828,4.183594 2.23828,7.453125 0,3.4687503 -0.76172,6.0117191 -2.23828,7.6992191 -1.48828,1.6875 -3.3164,2.5546875 -5.5664,2.5546875 -2.23829,0 -4.07813,-0.8203125 -5.55469,-2.5078125 -1.47656,-1.6757813 -2.25,-4.2304688 -2.25,-7.5937501 0,-3.363281 0.77344,-5.917969 2.25,-7.605469 z M 336.68752,5.453125e-4 V -14.436955 c 0,-3.410156 0.71485,-5.707031 2.09766,-6.878906 1.37109,-1.230469 3,-1.839844 4.88672,-1.839844 1.23047,0 2.25,0.257813 3.11719,0.820313 0.91406,0.503906 1.52343,1.277344 1.88671,2.144531 0.35157,0.914063 0.50391,2.285156 0.50391,4.125 V 5.453125e-4 h 4.48828 V -16.26508 c 0,-2.039062 -0.0937,-3.527343 -0.24609,-4.335937 -0.25781,-1.277344 -0.71485,-2.402344 -1.38281,-3.316406 -0.65625,-0.914063 -1.67579,-1.6875 -3.01172,-2.25 -1.32422,-0.550782 -2.80078,-0.867188 -4.38282,-0.867188 -3.66796,0 -6.48046,1.429688 -8.41406,4.335938 v -3.773438 h -4.03125 V 5.453125e-4 Z m 51.77637,0 V -4.2885172 H 366.06936 V -16.722111 h 20.14453 v -4.289062 H 366.06936 V -32.226017 H 387.5967 V -36.51508 H 361.22952 V 5.453125e-4 Z M 419.06155,-15.456486 c 0,4.59375 -0.76172,7.6992188 -2.23828,9.3398438 -1.53516,1.5820313 -4.03125,2.390625 -7.60547,2.390625 -2.03907,0 -3.77344,-0.4101562 -5.20313,-1.21875 -1.42969,-0.8203125 -2.44922,-1.9921875 -3.05859,-3.46875 -0.5625,-1.5351562 -0.86719,-3.8203128 -0.86719,-7.0429688 V -36.51508 h -4.83984 v 21.117188 c 0,3.820312 0.45703,6.8789061 1.37109,9.1289061 0.92578,2.2382812 2.50781,3.9257812 4.64063,5.0976562 2.1914,1.1718750125 5.0039,1.78125001 8.41406,1.78125001 3.52734,0 6.32812,-0.65625 8.51953,-2.03906251 2.14453,-1.3242187 3.62109,-3.1054687 4.48828,-5.25 0.82031,-2.1445312 1.23047,-5.0976558 1.23047,-8.7187498 V -36.51508 h -4.85156 z m 0,0"
         style="fill:#505256;fill-opacity:1;fill-rule:nonzero;stroke:none"
         aria-label="NextGenerationEU"
         transform="matrix(1.3333333,0,0,1.3333333,448.66533,292.80787)" />
    </g>
  </g>
</svg>
